<?xml version="1.0" encoding="UTF-8" standalone="no"?>
<svg
   xmlns:dc="http://purl.org/dc/elements/1.1/"
   xmlns:cc="http://web.resource.org/cc/"
   xmlns:rdf="http://www.w3.org/1999/02/22-rdf-syntax-ns#"
   xmlns:svg="http://www.w3.org/2000/svg"
   xmlns="http://www.w3.org/2000/svg"
   xmlns:sodipodi="http://sodipodi.sourceforge.net/DTD/sodipodi-0.dtd"
   xmlns:inkscape="http://www.inkscape.org/namespaces/inkscape"
   viewBox="0 0 235.0 235.0"
   id="svg3138"
   sodipodi:version="0.32"
   inkscape:version="0.45.1"
   width="210mm"
   height="297mm"
   sodipodi:docname="logo.svg"
   inkscape:output_extension="org.inkscape.output.svg.inkscape"
   sodipodi:docbase="C:\Documents and Settings\Douglas\Desktop">
  <metadata
     id="metadata4033">
    <rdf:RDF>
      <cc:Work
         rdf:about="">
        <dc:format>image/svg+xml</dc:format>
        <dc:type
           rdf:resource="http://purl.org/dc/dcmitype/StillImage" />
      </cc:Work>
    </rdf:RDF>
  </metadata>
  <defs
     id="defs4031" />
  <sodipodi:namedview
     inkscape:window-height="747"
     inkscape:window-width="1024"
     inkscape:pageshadow="2"
     inkscape:pageopacity="0.0"
     guidetolerance="10.0"
     gridtolerance="10.0"
     objecttolerance="10.0"
     borderopacity="0.0"
     bordercolor="#666666"
     pagecolor="#ffffff"
     id="base"
     inkscape:zoom="0.52928546"
     inkscape:cx="372.04724"
     inkscape:cy="526.18109"
     inkscape:window-x="0"
     inkscape:window-y="0"
     inkscape:current-layer="svg3138"
     showgrid="false"
     borderlayer="false"
     inkscape:object-bbox="false" />
  <a
     id="a5974" />
  <path
     stroke="none"
     fill="#7f7f7f"
     d="M44 0L44 1L47 1L44 0M64 0L65 1z"
     id="path3142" />
  <path
     stroke="none"
     fill="#000000"
     d="M31 10L46 2C40.3364 0.135529 33.4844 5.11169 31 10z"
     id="path3144" />
  <path
     stroke="none"
     fill="#bfbfbf"
     d="M63.3333 1.66667L63.6667 2.33333L63.3333 1.66667z"
     id="path3146" />
  <path
     stroke="none"
     fill="#000000"
     d="M64 1L76 11C73.5874 5.82999 69.6596 2.14192 64 1z"
     id="path3148" />
  <path
     stroke="none"
     fill="#3f3f3f"
     d="M39.6667 2.33333L40.3333 2.66667L39.6667 2.33333z"
     id="path3150" />
  <path
     stroke="none"
     fill="#7f7f7f"
     d="M44 2L45 3L44 2M42 3L43 4L42 3M68 5L69 6z"
     id="path3152" />
  <path
     stroke="none"
     fill="#3f3f3f"
     d="M30 9L30 11L32 11z"
     id="path3154" />
  <path
     stroke="none"
     fill="#7f7f7f"
     d="M33 9L34 10L33 9M74 10L75 11L74 10M42.6667 11.3333L43.3333 11.6667L42.6667 11.3333z"
     id="path3156" />
  <path
     stroke="none"
     fill="#000000"
     d="M10 56L14 45C8.96162 45.9576 3.5756 47.7905 2 53L7 52L9.75772 79L13.5556 91L11 110L19 102C14.0093 114.168 5.07349 128.716 9 142L15 134L16 144C22.3157 139.538 17.9053 127.542 18.2747 121C18.5216 116.627 21.0231 112.773 23 109C13.4516 114.841 17.999 128.781 18 138L17 138L12 130L11 133L10 133L22 101C27.298 102.416 36.4396 103.459 40.3472 107.51C43.9844 111.281 43.3012 118.26 42.561 123C40.5526 135.859 33.6061 147.579 29.8611 160C22.0601 185.874 28.0388 214.747 54 228L54 229L44 231L62 234.089L105 234L105 232L93 231L93 228C110.908 226.427 121.253 205.895 139 204.201C153.673 202.8 169.128 221.184 180 229L172 231L172 233C188.316 233.135 203.708 237.014 220 233L220 232L205 229L205 228C233.487 218.316 234.988 177.556 231 154L230 154C229.995 160.924 229.591 168.315 227.702 175C226.406 179.587 224.655 183.875 222.254 188C220.551 190.925 218.545 193.552 215.985 195.787C193.6 215.331 176.142 180.658 160 170.109C153.446 165.826 145.647 164.825 138 165.015C122.17 165.408 108.203 176.517 95 184C87.7295 188.121 79.7769 192.782 72.5185 186.072C58.6196 173.222 73.7955 145.619 75.7137 130C76.7559 121.514 74.6625 113.394 74 105L75 105L82 117L81.2785 98L90.1358 81L97 51L101 52L102 48L91 45L93 54C81.2022 43.7041 95.6353 32.5767 87.9715 21.0154C80.1567 9.22653 67.7453 13.3248 56.4244 13.6173C52.9129 13.708 49.5967 11.5094 46 11.4738C38.146 11.396 27.4109 17.9318 22.9699 24.1705C15.8576 34.1619 19.4063 46.8781 10 56z"
     id="path3158" />
  <path
     stroke="none"
     fill="#7f7f7f"
     d="M47 11L47 12L50 12L47 11M64 11L64 12L70 12z"
     id="path3160" />
  <path
     stroke="none"
     fill="#000000"
     d="M137 36C137.002 38.9051 136.368 42.9982 138.603 45.2724C145.551 52.3416 164.318 48.1282 165.782 37.9992C167.006 29.5363 160.738 27.0362 154.002 24.841C152.394 24.3172 147.354 22.7562 149.06 20.1304C152.14 15.3916 161.271 20.9341 165 22C164.998 19.529 165.6 15.8171 163.972 13.7276C159.115 7.49118 142.515 10.7785 139.179 17.044C131.405 31.6471 149.915 29.4495 154.079 36.4691C157.221 41.7676 145.762 39.7646 144.002 39.0494C141.625 38.084 139.413 36.8765 137 36z"
     id="path3162" />
  <path
     stroke="none"
     fill="#3f3f3f"
     d="M39.6667 12.3333L40.3333 12.6667L39.6667 12.3333z"
     id="path3164" />
  <path
     stroke="none"
     fill="#7f7f7f"
     d="M60 12L61 13L60 12M73 12L73 13L76 13z"
     id="path3166" />
  <path
     style="fill:#000000;stroke:none"
     d="M 112.19634,46.783057 L 112.19834,46.537206 L 115.01961,39.580567 L 124.34917,39.34917 L 126,47 L 136,47 C 134.615,37.6217 130.755,22.2277 125.442,14.3179 C 123.531,11.4723 117.398,11.0059 114.702,13.0278 C 112.046,15.0201 111.333,20.0283 110.333,23 C 107.631,31.0272 104.622,38.9405 102,47 M 169,12 L 169,47 L 179,47 L 179,36 C 189.281,35.9716 206.57,24.1055 192.786,14.1481 C 186.91,9.90283 175.9,12 169,12 M 197,12 C 203.023,24.9006 209,32.3222 209,47 L 219,47 C 219,32.3222 224.977,24.9006 231,12 C 220.844,12 219.065,14.4108 214,23 C 209.78,13.9611 206.779,12 197,12 z "
     id="path3168"
     sodipodi:nodetypes="cccccccccccccccccccccc" />
  <path
     stroke="none"
     fill="#3f3f3f"
     d="M35.6667 14.3333L36.3333 14.6667L35.6667 14.3333z"
     id="path3170" />
  <path
     stroke="none"
     fill="#7f7f7f"
     d="M42 14L42 15L45 15L42 14M47 14L48 15L47 14M56 14L57 15L56 14M67 14L67 15L70 15L67 14M80 14L81 15L80 14M40 15L41 16L40 15M50 15L51 16z"
     id="path3172" />
  <path
     stroke="none"
     fill="#bfbfbf"
     d="M62.6667 15.3333L63.3333 15.6667L62.6667 15.3333z"
     id="path3174" />
  <path
     stroke="none"
     fill="#7f7f7f"
     d="M74.6667 15.3333L75.3333 15.6667L74.6667 15.3333M82 15L83 16L82 15M30 17L31 18L30 17M36 17L37 18L36 17M53 18L54 19L53 18M57 18L57 25L58 25z"
     id="path3176" />
  <path
     stroke="none"
     fill="#000000"
     d="M179 29L179 19C188.609 19.528 187.964 27.5711 179 29z"
     id="path3178"
     style="fill:#ffffff;fill-opacity:0" />
  <path
     stroke="none"
     fill="#7f7f7f"
     d="M54 20L54 23L55 23L54 20M87 20L88 21L87 20M84 21L86 23L84 21M51 22L52 23L51 22M28 23L29 24z"
     id="path3180" />
  <path
     stroke="none"
     fill="#3f3f3f"
     d="M53.6667 23.3333L54.3333 23.6667L53.6667 23.3333z"
     id="path3182" />
  <path
     stroke="none"
     fill="#004c70"
     d="M47 24L47 25L50 25z"
     id="path3184" />
  <path
     stroke="none"
     fill="#7f7f7f"
     d="M64 24L65 25L64 24M86 24L87 25z"
     id="path3186" />
  <path
     stroke="none"
     fill="#000000"
     d="M 119.34917,23.132227 L 122,33 L 116,33 L 119.34917,23.132227 z "
     id="path3188"
     style="fill:#ffffff;fill-opacity:1"
     sodipodi:nodetypes="cccc" />
  <path
     stroke="none"
     fill="#0098e0"
     d="M48 38C45.441 31.3948 45.5983 26.6492 54 29C48.5425 19.103 36.0719 32.2469 48 38z"
     id="path3190" />
  <path
     stroke="none"
     fill="#7f7f7f"
     d="M90 25L90 28L91 28L90 25M21 26L22 27z"
     id="path3192" />
  <path
     stroke="none"
     fill="#0098e0"
     d="M58 30C68.0762 28.3199 61.6279 40.3595 57 32C52.289 39.0338 62.4853 41.1175 66.2539 35.8518C70.7344 29.5913 62.0531 23.1352 58 30z"
     id="path3194" />
  <path
     stroke="none"
     fill="#004c70"
     d="M63.6667 26.3333L64.3333 26.6667L63.6667 26.3333z"
     id="path3196" />
  <path
     stroke="none"
     fill="#7f7f7f"
     d="M87 27L87 34L88 34L87 27M20 28L21 29z"
     id="path3198" />
  <path
     stroke="none"
     fill="#0072a8"
     d="M57 28L57 32L58 32z"
     id="path3200" />
  <path
     stroke="none"
     fill="#004c70"
     d="M42.3333 29.6667L42.6667 30.3333L42.3333 29.6667M59 29L59 30L64 30z"
     id="path3202" />
  <path
     stroke="none"
     fill="#7f7f7f"
     d="M19 30L19 33L20 33z"
     id="path3204" />
  <path
     stroke="none"
     fill="#000000"
     d="M58 36C71.109 35.5695 57.134 24.7201 58 36z"
     id="path3206" />
  <path
     stroke="none"
     fill="#7f7f7f"
     d="M23 31L24 32L23 31M39.3333 32.6667L39.6667 33.3333L39.3333 32.6667M90.3333 32.6667L90.6667 33.3333L90.3333 32.6667z"
     id="path3208" />
  <path
     stroke="none"
     fill="#bfbfbf"
     d="M22.3333 33.6667L22.6667 34.3333L22.3333 33.6667z"
     id="path3210" />
  <path
     stroke="none"
     fill="#004c70"
     d="M57.3333 33.6667L57.6667 34.3333L57.3333 33.6667z"
     id="path3212" />
  <path
     stroke="none"
     fill="#7f7f7f"
     d="M40 35L41 36z"
     id="path3214" />
  <path
     stroke="none"
     fill="#004c70"
     d="M54.3333 35.6667L54.6667 36.3333L54.3333 35.6667z"
     id="path3216" />
  <path
     stroke="none"
     fill="#7f7f7f"
     d="M21 36L21 40L22 40L21 36M89 36L90 37L89 36M41 37L42 38L41 37M88 38L89 39z"
     id="path3218"
     style="fill:#ffffff" />
  <path
     stroke="none"
     fill="#004c70"
     d="M58 39L58 40L62 40z"
     id="path3220" />
  <path
     stroke="none"
     fill="#6dab24"
     d="M26 50L26 51L40 50L40 51C35.8871 51.7635 31.1952 52.6926 27.0394 51.6867C24.653 51.1091 21.8868 47.959 19.3542 49.1752C16.5553 50.5191 15.4053 55.3846 14.2809 58C9.35894 69.4479 9.86416 84.7675 20.0432 93.5324C41.321 111.854 78.3031 106.766 88.6705 78.9961C92.746 68.0798 88.8554 55.3252 85 45L66 47.4707L52 40.9961L41 47.0046z"
     id="path3222" />
  <path
     stroke="none"
     fill="#7f7f7f"
     d="M82 40L83 41L82 40M18.3333 42.6667L18.6667 43.3333L18.3333 42.6667M42 42L43 43L42 42M62.6667 42.3333L63.3333 42.6667L62.6667 42.3333z"
     id="path3224" />
  <path
     stroke="none"
     fill="#3f3f3f"
     d="M78.6667 42.3333L79.3333 42.6667L78.6667 42.3333z"
     id="path3226" />
  <path
     stroke="none"
     fill="#7f7f7f"
     d="M74 43L74 44L77 44z"
     id="path3228" />
  <path
     stroke="none"
     fill="#bfbfbf"
     d="M12.6667 44.3333L13.3333 44.6667L12.6667 44.3333z"
     id="path3230" />
  <path
     stroke="none"
     fill="#7f7f7f"
     d="M23.6667 44.3333L24.3333 44.6667L23.6667 44.3333M92.6667 44.3333L93.3333 44.6667L92.6667 44.3333M10 45L11 46L10 45M26 45L26 46L35 46L26 45M95 45L96 46L95 45M97 46L98 47z"
     id="path3232" />
  <path
     stroke="none"
     fill="#3f3f3f"
     d="M6.66667 47.3333L7.33333 47.6667L6.66667 47.3333z"
     id="path3234" />
  <path
     stroke="none"
     fill="#1b2a09"
     d="M60 47L60 48L68 51z"
     id="path3236" />
  <path
     stroke="none"
     fill="#365512"
     d="M65 47L65 48L75 48z"
     id="path3238" />
  <path
     stroke="none"
     fill="#7f7f7f"
     d="M91 47L92 48L91 47M15 48L16 49z"
     id="path3240" />
  <path
     stroke="none"
     fill="#bfbfbf"
     d="M102.333 48.6667L102.667 49.3333L102.333 48.6667z"
     id="path3242" />
  <path
     stroke="none"
     fill="#365512"
     d="M23 49C26.1978 53.9325 34.944 52.2037 40 51L40 50z"
     id="path3244" />
  <path
     stroke="none"
     fill="#bfbfbf"
     d="M1.33333 50.6667L1.66667 51.3333L1.33333 50.6667z"
     id="path3246" />
  <path
     stroke="none"
     fill="#7f7f7f"
     d="M14 50L15 51z"
     id="path3248" />
  <path
     stroke="none"
     fill="#1b2a09"
     d="M62 50C64.4306 54.0161 68.5101 54.7695 73 55L73 54z"
     id="path3250" />
  <path
     stroke="none"
     fill="#000000"
     d="M68 50L68 51L76 51z"
     id="path3252" />
  <path
     stroke="none"
     fill="#7f7f7f"
     d="M89 50L90 51z"
     id="path3254" />
  <path
     stroke="none"
     fill="#bfbfbf"
     d="M10.3333 51.6667L10.6667 52.3333L10.3333 51.6667z"
     id="path3256" />
  <path
     stroke="none"
     fill="#365512"
     d="M70 51L70 52L76 52L70 51M87.3333 51.6667L87.6667 52.3333L87.3333 51.6667z"
     id="path3258" />
  <path
     stroke="none"
     fill="#7f7f7f"
     d="M97 51L98 52L97 51M101 51L102 52L101 51M4 52L5 53L4 52M6 52L7 53L6 52M90 52L91 53L90 52M10 53L12 56L10 53M12 53L13 54z"
     id="path3260" />
  <path
     stroke="none"
     fill="#365512"
     d="M32 54L32 55L37 54z"
     id="path3262" />
  <path
     stroke="none"
     fill="#7f7f7f"
     d="M92 53L93 54L92 53M96 53L97 54L96 53M7 55L8 56z"
     id="path3264" />
  <path
     stroke="none"
     fill="#365512"
     d="M89.3333 58.6667L89.6667 59.3333L89.3333 58.6667z"
     id="path3266" />
  <path
     stroke="none"
     fill="#ede7e8"
     d="M143 59L143 60C157.518 60 167.323 63.0615 181 67C171.409 57.3143 155.437 59 143 59z"
     id="path3268" />
  <path
     stroke="none"
     fill="#bfbfbf"
     d="M93.3333 60.6667L93.6667 61.3333L93.3333 60.6667z"
     id="path3270" />
  <path
     stroke="none"
     fill="#ce4b5d"
     d="M 111,137 L 112,137 L 108,127 C 116.5,126.983 118.798,130.263 126,134 C 120.814,124.942 115.11177,120.86889 114.86777,109.43389 C 102.31177,108.03089 107.231,93.4121 111.313,86 C 118.574,72.8172 133.117,63.61 148,62.1698 C 164.24,60.5982 181.116,67.0778 191.331,80.0008 C 195.611,85.4155 205.42,100.508 199.397,107.431 C 196.605,110.64 190.93,111.189 187,112 L 192,123 L 193,123 L 200,121 L 200,125 C 212.463,107.53 197.747,79.6853 183,68.9275 C 150.303,45.0751 104.003,69.214 104,109 C 103.999,119.253 105.789,128.038 111,137 z "
     id="path3272"
     sodipodi:nodetypes="cccccccsccccccccc" />
  <path
     stroke="none"
     fill="#7f7f7f"
     d="M93 62L93 68L94 68z"
     id="path3274" />
  <path
     stroke="none"
     fill="#f1ced3"
     d="M117 79C143.721 64.1828 160.347 65.4873 188 77C176.723 54.7932 127.32 57.0563 117 79z"
     id="path3276" />
  <path
     stroke="none"
     fill="#365512"
     d="M90 63L90 72L91 72L90 63M10 66L10 70L11 70z"
     id="path3278" />
  <path
     stroke="none"
     fill="#e6a7b0"
     d="M113 84L118 80C118.629 83.7756 132.363 82 136 82C153.858 82 175.679 78.6287 193 83C190.355 76.2573 183.391 74.1157 177 71.615C160.641 65.2139 145.172 64.6921 129 71.8619C123.05 74.4998 115.232 77.5228 113 84z"
     id="path3280" />
  <path
     stroke="none"
     fill="#7f7f7f"
     d="M8 68L8 71L9 71z"
     id="path3282" />
  <path
     stroke="none"
     fill="#365512"
     d="M32 71L32 77L33 77L34 71L32 71M37.6667 73.3333L38.3333 73.6667L37.6667 73.3333z"
     id="path3284" />
  <path
     stroke="none"
     fill="#bfbfbf"
     d="M92.3333 73.6667L92.6667 74.3333L92.3333 73.6667z"
     id="path3286" />
  <path
     stroke="none"
     fill="#000000"
     d="M31 74L31 80L32 80L31 74M37.4583 75.0857C34.874 76.7775 36.6999 81.3647 39.7222 79.8248C42.9484 78.1811 40.6876 72.9716 37.4583 75.0857z"
     id="path3288" />
  <path
     stroke="none"
     fill="#365512"
     d="M30 75L30 79L31 79L30 75M35.3333 75.6667L35.6667 76.3333L35.3333 75.6667M53 75L53 76L56 76z"
     id="path3290" />
  <path
     stroke="none"
     fill="#000000"
     d="M55.9861 75.8904C51.5773 76.0798 51.2944 81.7058 55.9645 81.7037C60.348 81.7017 60.2516 75.7073 55.9861 75.8904z"
     id="path3292" />
  <path
     stroke="none"
     fill="#7f7f7f"
     d="M91.3333 76.6667L91.6667 77.3333L91.3333 76.6667M9.33333 77.6667L9.66667 78.3333L9.33333 77.6667z"
     id="path3294" />
  <path
     stroke="none"
     fill="#365512"
     d="M60 77L60 82L62 84L63 84L63 78L62 78L62 80L61 80L60 77M35.3333 78.6667L35.6667 79.3333L35.3333 78.6667M12.3333 80.6667L12.6667 81.3333L12.3333 80.6667M31 80L34 84z"
     id="path3296" />
  <path
     stroke="none"
     fill="#7f7f7f"
     d="M90 80L91 81z"
     id="path3298" />
  <path
     stroke="none"
     fill="#e49aa5"
     d="M 116,80 L 112,83 C 108.738,90.8456 99.5595,108.207 114,109 L 114,116 L 115,116 C 115.001,102.549 123.654,88.8391 139,90.108 C 144.448,90.5585 149.08856,92.798574 153,96.214787 C 155.92534,98.769746 160.905,95.7229 165,98 C 170.611,88.7428 178.487,89.3031 186,96 L 187,96 C 190.85,93.946 185.26738,101.50115 188.88838,104.24385 L 199,96 L 194,82 L 136,82 L 118,80 L 116,80 z "
     id="path3300"
     sodipodi:nodetypes="cccccssccccccccc" />
  <path
     stroke="none"
     fill="#51801b"
     d="M59 81L52 82L52 83C54.5186 83.4651 59.6355 84.8504 59 81z"
     id="path3302" />
  <path
     stroke="none"
     fill="#000000"
     d="M61 81L59 85C61.6489 84.4324 62.3548 83.4122 61 81z"
     id="path3304" />
  <path
     stroke="none"
     fill="#7f7f7f"
     d="M89 82L90 83z"
     id="path3306" />
  <path
     stroke="none"
     fill="#dcd8d8"
     d="M196 82L200 92L201 92z"
     id="path3308" />
  <path
     stroke="none"
     fill="#000000"
     d="M34 83L34 84L43 84z"
     id="path3310" />
  <path
     stroke="none"
     fill="#365512"
     d="M53 83L61 86L61 85L53 83M35 84L35 85L41 85z"
     id="path3312" />
  <path
     d="M 79.680824,100.27075 L 76.756155,104.15558 L 79.222869,109.79611 C 80.436978,110.99813 80.523436,106.54492 79.680824,100.27075 z "
     id="path3314"
     sodipodi:nodetypes="cccc"
     style="fill:#ffffff;stroke:none" />
  <path
     stroke="none"
     fill="#365512"
     d="M84.3333 85.6667L84.6667 86.3333L84.3333 85.6667z"
     id="path3316" />
  <path
     stroke="none"
     fill="#ecc8cf"
     d="M173 90L173 91L178 91z"
     id="path3318" />
  <path
     stroke="none"
     fill="#a22020"
     d="M84 91L85 92z"
     id="path3320" />
  <path
     stroke="none"
     fill="#7f7f7f"
     d="M13.3333 92.6667L13.6667 93.3333L13.3333 92.6667z"
     id="path3322" />
  <path
     stroke="none"
     fill="#e1a7b0"
     d="M105.333 93.6667L105.667 94.3333L105.333 93.6667z"
     id="path3324" />
  <path
     stroke="none"
     fill="#7f7f7f"
     d="M 15,94 L 13.915283,104.59302 L 17.735546,99.169433 L 15,94 z "
     id="path3326"
     sodipodi:nodetypes="cccc"
     style="fill:#ffffff" />
  <path
     stroke="none"
     fill="#dd828e"
     d="M 199.13223,92.830567 C 193.34823,93.037167 191.99777,94.314346 186.70077,98.568846 C 182.65977,101.81455 175.698,92.6357 171.167,97.1667 C 168.836,99.4971 169.705,104.839 172,106.833 C 177.724,111.807 195.347,115.396 200.5,107.667 C 202.534,104.616 199.73123,96.079767 199.13223,92.830567 z "
     id="path3328"
     sodipodi:nodetypes="cscccc" />
  <path
     stroke="none"
     fill="#7f7f7f"
     d="M18 95L19 96z"
     id="path3330" />
  <path
     stroke="none"
     fill="#e6c0c6"
     d="M104 96L104 99L105 99z"
     id="path3332" />
  <path
     stroke="none"
     fill="#dc7e8b"
     d="M 123.16943,111.30166 L 140.16943,113.82026 L 157.16943,116.33887 C 155.11693,107.70087 147.21768,98.010834 139.53118,96.21427 C 131.84468,94.417705 124.37093,100.51461 123.16943,111.30166 z "
     id="path3334"
     sodipodi:nodetypes="cccsc" />
  <path
     stroke="none"
     fill="#dd838e"
     d="M154 96C158.398 107.623 162.15 113.735 175 114L175 113C165.965 110.852 164.006 104.358 164 96z"
     id="path3336" />
  <path
     stroke="none"
     fill="#7f7f7f"
     d="M12 97L12 100L13 100L12 97M77 98L78 99L77 98M17 99L18 100L17 99M75 99L76 100z"
     id="path3338" />
  <path
     stroke="none"
     fill="#e9bfc9"
     d="M169 99L169 104L170 104z"
     id="path3340" />
  <path
     stroke="none"
     fill="#d09ba2"
     d="M203 99L203 103L204 103z"
     id="path3342" />
  <path
     stroke="none"
     fill="#365512"
     d="M69.6667 100.333L70.3333 100.667L69.6667 100.333z"
     id="path3344" />
  <path
     stroke="none"
     fill="#3f3f3f"
     d="M74.3333 100.667L74.6667 101.333L74.3333 100.667z"
     id="path3346" />
  <path
     stroke="none"
     fill="#7f7f7f"
     d="M78.3333 100.667L78.6667 101.333L78.3333 100.667z"
     id="path3348" />
  <path
     stroke="none"
     fill="#3f3f3f"
     d="M14 101L14 105L15 105z"
     id="path3350" />
  <path
     stroke="none"
     fill="#7f7f7f"
     d="M19 101L20 102z"
     id="path3352" />
  <path
     stroke="none"
     fill="#f6725e"
     d="M22 101L10 133L11 133L12 130L16 134L17 134L16.642 119L27 102z"
     id="path3354" />
  <path
     stroke="none"
     fill="#365512"
     d="M65.6667 102.333L66.3333 102.667L65.6667 102.333z"
     id="path3356" />
  <path
     stroke="none"
     fill="#d67b89"
     d="M103 102L103 115L104 115z"
     id="path3358" />
  <path
     stroke="none"
     fill="#7f7f7f"
     d="M11.3333 103.667L11.6667 104.333L11.3333 103.667M17.6667 103.333L18.3333 103.667L17.6667 103.333z"
     id="path3360" />
  <path
     stroke="none"
     fill="#3f3f3f"
     d="M25 107L29 103z"
     id="path3362" />
  <path
     stroke="none"
     fill="#7f7f7f"
     d="M29.6667 103.333L30.3333 103.667L29.6667 103.333z"
     id="path3364" />
  <path
     stroke="none"
     fill="#365512"
     d="M59 103L59 104L62 104z"
     id="path3366" />
  <path
     stroke="none"
     fill="#570000"
     d="M81 103L81 110L82 110z"
     id="path3368" />
  <path
     stroke="none"
     fill="#3f3f3f"
     d="M33.6667 104.333L34.3333 104.667L33.6667 104.333z"
     id="path3370" />
  <path
     stroke="none"
     fill="#365512"
     d="M48 104L48 105L56 105z"
     id="path3372" />
  <path
     stroke="none"
     fill="#7f7f7f"
     d="M17 105L18 106L17 105M36.6667 105.333L37.3333 105.667L36.6667 105.333z"
     id="path3374" />
  <path
     stroke="none"
     fill="#6dab24"
     d="M49 108C49 113.875 48.3448 133.086 44 132L44 139L41 138C45.1323 149.113 33.0642 163.033 34 175L33 175L33 172L32 172L36 201L44 212C48.4403 213.199 51.7879 217.096 56 219.11C65.5219 223.663 77.5163 225.752 88 223.481C107.433 219.273 124.755 190.918 145.91 197.989C151.193 199.755 156.648 203.628 161 207.015C165.094 210.202 169.634 213.328 172 218C182.308 219.255 186.718 228.904 199 225.2C205.292 223.302 211.399 217.971 215.185 212.711C217.795 209.084 219.563 203.503 224 202L228 184L227 184L213 201L213 202C220.312 217.248 185.891 223.753 191 202C182.983 197.654 179.81 203.359 172.001 201.693C161.857 199.529 158.743 186.7 166 180L155 173C152.439 189.6 130.462 185.556 130 170L119 173C122.113 181.086 121.767 186.531 114.714 192.581C108.588 197.835 97.8903 197.042 95 189C82.67 191.577 86.2689 210.473 71.0039 206.387C65.1329 204.816 57.5374 197.821 59.6466 191C61.0136 186.579 66.1413 184.265 65.0787 179.059C64.1798 174.654 57.7234 173.684 55.1582 169.906C48.664 160.342 56.5413 147.403 68 149L70 142C51.5403 137.611 58.0104 118.594 73 115L71 105z"
     id="path3376" />
  <path
     stroke="none"
     fill="#820000"
     d="M74 105L74 110L75 110z"
     id="path3378" />
  <path
     stroke="none"
     fill="#000000"
     d="M24.3333 106.667L24.6667 107.333L24.3333 106.667z"
     id="path3380" />
  <path
     stroke="none"
     fill="#7f7f7f"
     d="M16 107L17 108z"
     id="path3382" />
  <path
     stroke="none"
     fill="#3f3f3f"
     d="M23 107L22 109L24 109z"
     id="path3384" />
  <path
     stroke="none"
     fill="#7f7a20"
     d="M45 107C45.0512 113.188 42.8925 126.722 47 131z"
     id="path3386" />
  <path
     stroke="none"
     fill="#365512"
     d="M48 107L48 120L49 120L49 108L63 108z"
     id="path3388" />
  <path
     stroke="none"
     fill="#7f7f7f"
     d="M10.3333 108.667L10.6667 109.333L10.3333 108.667M13 108L12 110z"
     id="path3390" />
  <path
     stroke="none"
     fill="#e6a3ad"
     d="M120 108L120 117L121 117L121 111L155 113L155 112C144.062 112 129.826 113.571 120 108z"
     id="path3392" />
  <path
     stroke="none"
     fill="#3f3f3f"
     d="M15.3333 109.667L15.6667 110.333L15.3333 109.667z"
     id="path3394" />
  <path
     stroke="none"
     fill="#bfbfbf"
     d="M10.6667 110.333L11.3333 110.667L10.6667 110.333z"
     id="path3396" />
  <path
     stroke="none"
     fill="#7f7f7f"
     d="M42.3333 110.667L42.6667 111.333L42.3333 110.667M21 111L22 112z"
     id="path3398" />
  <path
     stroke="none"
     fill="#cf5060"
     d="M 121.43389,110.13223 C 121.49189,131.09723 139.646,133.166 153,122 L 150,133 L 160,126 L 165,132 L 156.301,115.028 L 145,113.961 L 121.43389,110.13223 z "
     id="path3400"
     sodipodi:nodetypes="cccccccc" />
  <path
     stroke="none"
     fill="#f1ccd2"
     d="M155 111L147 113L147 114C149.616 114 156.541 115.089 155 111z"
     id="path3402" />
  <path
     stroke="none"
     fill="#3f3f3f"
     d="M14.3333 112.667L14.6667 113.333L14.3333 112.667z"
     id="path3404" />
  <path
     stroke="none"
     fill="#365512"
     d="M72.3333 112.667L72.6667 113.333L72.3333 112.667z"
     id="path3406" />
  <path
     stroke="none"
     fill="#7f7f7f"
     d="M20 113L21 114z"
     id="path3408" />
  <path
     stroke="none"
     fill="#820000"
     d="M79.3333 114.667L79.6667 115.333L79.3333 114.667z"
     id="path3410" />
  <path
     stroke="none"
     fill="#cf5060"
     d="M163 114C164.021 117.732 165.308 121.645 167.363 124.956C176.497 139.667 196.284 116.888 174 114.184C170.386 113.746 166.635 114 163 114z"
     id="path3412" />
  <path
     stroke="none"
     fill="#7f7f7f"
     d="M13.3333 115.667L13.6667 116.333L13.3333 115.667z"
     id="path3414" />
  <path
     stroke="none"
     fill="#365512"
     d="M70 115L70 116L73 116z"
     id="path3416" />
  <path
     stroke="none"
     fill="#ccc5c6"
     d="M203 116L201 127L202 127z"
     id="path3418" />
  <path
     stroke="none"
     fill="#004d28"
     d="M71 140L71 136C60.8776 133.148 63.1964 121.746 73 121C68.9895 111.065 52.3204 131.432 64.2122 138.543C66.305 139.795 68.6458 139.878 71 140z"
     id="path3420" />
  <path
     stroke="none"
     fill="#7b392f"
     d="M16 118L16 126L17 126z"
     id="path3422" />
  <path
     stroke="none"
     fill="#7f7f7f"
     d="M12 119L12 122L13 122z"
     id="path3424" />
  <path
     stroke="none"
     fill="#7b392f"
     d="M14 119L14 123L15 123z"
     id="path3426" />
  <path
     stroke="none"
     fill="#da94a1"
     d="M191 119L191 124L192 124z"
     id="path3428" />
  <path
     stroke="none"
     fill="#dfb4bb"
     d="M104 120L104 123L105 123z"
     id="path3430" />
  <path
     stroke="none"
     fill="#d68a99"
     d="M185 120L185 124L186 124z"
     id="path3432" />
  <path
     stroke="none"
     fill="#000000"
     d="M67 121L65 126L66 126L69 121z"
     id="path3434" />
  <path
     stroke="none"
     fill="#008131"
     d="M72 134L73 121C64.8329 122.288 62.5591 133.248 72 134z"
     id="path3436" />
  <path
     stroke="none"
     fill="#da7d81"
     d="M160 126C151.885 129.451 145.725 136.079 136 135.736C125.04 135.35 119.042 126.917 108 127L114 141C129.763 132.234 156.226 137.071 173 140.17C177.322 140.968 184.76 146.193 188.91 145.14C196.637 143.18 200.669 127.492 200 121C191.361 121.103 191.822 126.809 185.945 131.581C176.9 138.926 166.39 134.144 160 126z"
     id="path3438" />
  <path
     stroke="none"
     fill="#3f3f3f"
     d="M42.3333 122.667L42.6667 123.333L42.3333 122.667z"
     id="path3440" />
  <path
     stroke="none"
     fill="#e2b3be"
     d="M151.667 122.333L152.333 122.667L151.667 122.333z"
     id="path3442" />
  <path
     stroke="none"
     fill="#7f7f7f"
     d="M18 124L19 125z"
     id="path3444" />
  <path
     stroke="none"
     fill="#e0c1c6"
     d="M105 124L105 127L106 127z"
     id="path3446" />
  <path
     stroke="none"
     fill="#959595"
     d="M19 125L20 129L21 129z"
     id="path3448" />
  <path
     stroke="none"
     fill="#004018"
     d="M72 125L72 132L73 132z"
     id="path3450" />
  <path
     stroke="none"
     fill="#7f7f7f"
     d="M41 126L41 129L42 129z"
     id="path3452" />
  <path
     stroke="none"
     fill="#dfadb9"
     d="M154.333 126.667L154.667 127.333L154.333 126.667z"
     id="path3454" />
  <path
     stroke="none"
     fill="#570000"
     d="M7 127L7 137L8 137z"
     id="path3456" />
  <path
     stroke="none"
     fill="#7b392f"
     d="M17 127L17 138L18 138z"
     id="path3458" />
  <path
     stroke="none"
     fill="#cbc0c2"
     d="M200 127L199 132L200 132z"
     id="path3460" />
  <path
     stroke="none"
     fill="#570000"
     d="M19 128L19 139L20 139z"
     id="path3462" />
  <path
     stroke="none"
     fill="#7b392f"
     d="M10.3333 129.667L10.6667 130.333L10.3333 129.667z"
     id="path3464" />
  <path
     stroke="none"
     fill="#b20c0c"
     d="M20 129L20 134L21 134z"
     id="path3466" />
  <path
     stroke="none"
     fill="#fff440"
     d="M44 129L44 132L45 132z"
     id="path3468" />
  <path
     stroke="none"
     fill="#000000"
     d="M45 130L45 133L46 133z"
     id="path3470" />
  <path
     stroke="none"
     fill="#bfb730"
     d="M43.3333 131.667L43.6667 132.333L43.3333 131.667z"
     id="path3472" />
  <path
     stroke="none"
     fill="#404040"
     d="M75 131L75 134L76 134z"
     id="path3474" />
  <path
     stroke="none"
     fill="#cbcbcb"
     d="M76.3333 132.667L76.6667 133.333L76.3333 132.667z"
     id="path3476" />
  <path
     stroke="none"
     fill="#fff440"
     d="M43.3333 133.667L43.6667 134.333L43.3333 133.667z"
     id="path3478" />
  <path
     stroke="none"
     fill="#d37676"
     d="M20 134L20 137L21 137z"
     id="path3480" />
  <path
     stroke="none"
     fill="#bfb730"
     d="M42 134L42 136L44 136z"
     id="path3482" />
  <path
     stroke="none"
     fill="#365512"
     d="M44 134L44 138L45 138z"
     id="path3484" />
  <path
     stroke="none"
     fill="#cac8c8"
     d="M197 134L196 137z"
     id="path3486" />
  <path
     stroke="none"
     fill="#e1aeb8"
     d="M173 135L173 136L178 136z"
     id="path3488" />
  <path
     stroke="none"
     fill="#570000"
     d="M15 136L15 143L16 143z"
     id="path3490" />
  <path
     stroke="none"
     fill="#fff440"
     d="M42.3333 136.667L42.6667 137.333L42.3333 136.667z"
     id="path3492" />
  <path
     stroke="none"
     fill="#000000"
     d="M43 136L43 139L44 139z"
     id="path3494" />
  <path
     stroke="none"
     fill="#dd898b"
     d="M 115,139 C 117.947,161.047 143.66323,147.41343 156.13223,148.35443 C 167.00623,149.17543 179.275,154.18 189,147 C 183.377,140.982 163.75761,137.94957 156.03561,136.86557 C 138.36961,134.38857 132.652,135.96279 115,139 z "
     id="path3496"
     sodipodi:nodetypes="ccccc" />
  <path
     stroke="none"
     fill="#7f7f7f"
     d="M74 137L74 140L75 140z"
     id="path3498" />
  <path
     stroke="none"
     fill="#cbcbcb"
     d="M195.333 137.667L195.667 138.333L195.333 137.667z"
     id="path3500" />
  <path
     stroke="none"
     fill="#570000"
     d="M10 139L9 143z"
     id="path3502" />
  <path
     stroke="none"
     fill="#b71b1b"
     d="M19.3333 139.667L19.6667 140.333L19.3333 139.667z"
     id="path3504" />
  <path
     stroke="none"
     fill="#7f7f7f"
     d="M37 139L38 140z"
     id="path3506" />
  <path
     stroke="none"
     fill="#fff440"
     d="M41 139C35.4799 153.232 27.9674 169.339 29.0903 185C31.1763 214.095 59.3849 232.625 87 226.996C106.451 223.031 121.279 199.532 141 200.471C155.974 201.185 166.798 217.199 179 224C176.087 218.868 170.555 215.278 165.996 211.6C157.37 204.642 145.875 196.24 134 198.225C123.65 199.954 114.351 210.66 106 216.385C88.7204 228.231 65.8088 229.869 49.0147 215.671C32.7607 201.93 29.3303 182.724 34.3781 163C36.0673 156.399 42.7825 145.497 41 139z"
     id="path3508" />
  <path
     stroke="none"
     fill="#1b2a09"
     d="M42 140L38 153L39 153z"
     id="path3510" />
  <path
     stroke="none"
     fill="#365512"
     d="M66 141L66 142L70 142z"
     id="path3512" />
  <path
     stroke="none"
     fill="#c1c1c1"
     d="M192 141L191 144z"
     id="path3514" />
  <path
     stroke="none"
     fill="#cf6767"
     d="M18.3333 142.667L18.6667 143.333L18.3333 142.667z"
     id="path3516" />
  <path
     stroke="none"
     fill="#7f7f7f"
     d="M73 142L74 143z"
     id="path3518" />
  <path
     stroke="none"
     fill="#365512"
     d="M69.3333 143.667L69.6667 144.333L69.3333 143.667z"
     id="path3520" />
  <path
     stroke="none"
     fill="#7f7f7f"
     d="M212 143L214 145z"
     id="path3522" />
  <path
     stroke="none"
     fill="#6e2323"
     d="M16.6667 144.333L17.3333 144.667L16.6667 144.333z"
     id="path3524" />
  <path
     stroke="none"
     fill="#7f7f7f"
     d="M35 144L36 145z"
     id="path3526" />
  <path
     stroke="none"
     fill="#bfb730"
     d="M38.3333 144.667L38.6667 145.333L38.3333 144.667z"
     id="path3528" />
  <path
     stroke="none"
     fill="#000000"
     d="M210 144L219 166C221.59 159.755 216.549 146.114 210 144z"
     id="path3530" />
  <path
     stroke="none"
     fill="#7f7f7f"
     d="M209.333 145.667L209.667 146.333L209.333 145.667z"
     id="path3532" />
  <path
     stroke="none"
     fill="#bfbfbf"
     d="M72.3333 146.667L72.6667 147.333L72.3333 146.667z"
     id="path3534" />
  <path
     stroke="none"
     fill="#e4b0af"
     d="M129 151C141.405 164.572 166.315 158.986 180 151C162.005 142.352 146.9 150.231 129 151z"
     id="path3536" />
  <path
     stroke="none"
     fill="#3f3f3f"
     d="M214.333 146.667L214.667 147.333L214.333 146.667z"
     id="path3538" />
  <path
     stroke="none"
     fill="#365512"
     d="M62 148L62 149L66 149z"
     id="path3540" />
  <path
     stroke="none"
     fill="#7f7a20"
     d="M36.3333 149.667L36.6667 150.333L36.3333 149.667z"
     id="path3542" />
  <path
     stroke="none"
     fill="#365512"
     d="M59.6667 149.333L60.3333 149.667L59.6667 149.333z"
     id="path3544" />
  <path
     stroke="none"
     fill="#7f7f7f"
     d="M71.3333 149.667L71.6667 150.333L71.3333 149.667z"
     id="path3546" />
  <path
     stroke="none"
     fill="#c7707e"
     d="M123 149C131.343 164.208 171.028 164.602 181 151L152 158.957z"
     id="path3548" />
  <path
     stroke="none"
     fill="#7f7f7f"
     d="M215 149L216 150L215 149M32 151L33 152z"
     id="path3550" />
  <path
     stroke="none"
     fill="#004d28"
     d="M64 172C59.0945 164.62 53.926 155.06 68 154L68 151C53.9557 151.301 48.1508 171.481 64 172z"
     id="path3552" />
  <path
     stroke="none"
     fill="#b8b8b8"
     d="M181.667 151.333L182.333 151.667L181.667 151.333z"
     id="path3554" />
  <path
     stroke="none"
     fill="#3f3f3f"
     d="M229 151L229 154L230 154z"
     id="path3556" />
  <path
     stroke="none"
     fill="#365512"
     d="M37 152L37 158L38 158z"
     id="path3558" />
  <path
     stroke="none"
     fill="#7f7f7f"
     d="M31.3333 153.667L31.6667 154.333L31.3333 153.667z"
     id="path3560" />
  <path
     stroke="none"
     fill="#7f7a20"
     d="M35 153L36 154z"
     id="path3562" />
  <path
     stroke="none"
     fill="#7f7f7f"
     d="M70 153L71 154z"
     id="path3564" />
  <path
     stroke="none"
     fill="#b9b9b9"
     d="M176 154L176 155L180 154z"
     id="path3566" />
  <path
     stroke="none"
     fill="#7f7f7f"
     d="M229 154L229 164L230 164z"
     id="path3568" />
  <path
     stroke="none"
     fill="#004018"
     d="M64 155L64 156L66 159L67 159L67 155z"
     id="path3570" />
  <path
     stroke="none"
     fill="#bababa"
     d="M174.667 155.333L175.333 155.667L174.667 155.333z"
     id="path3572" />
  <path
     stroke="none"
     fill="#7f7f7f"
     d="M215 155L216 156z"
     id="path3574" />
  <path
     stroke="none"
     fill="#002614"
     d="M60 156C56.976 160.368 57.4415 163.075 59 168L60 168z"
     id="path3576" />
  <path
     stroke="none"
     fill="#008131"
     d="M65 168L66 156C58.4182 157.568 57.0834 165.785 65 168z"
     id="path3578" />
  <path
     stroke="none"
     fill="#bbbbbb"
     d="M172.667 156.333L173.333 156.667L172.667 156.333z"
     id="path3580" />
  <path
     stroke="none"
     fill="#3f3f3f"
     d="M218.333 156.667L218.667 157.333L218.333 156.667M231.333 156.667L231.667 157.333L231.333 156.667M30.3333 157.667L30.6667 158.333L30.3333 157.667z"
     id="path3582" />
  <path
     stroke="none"
     fill="#000000"
     d="M36 157L35 162L36 162z"
     id="path3584" />
  <path
     stroke="none"
     fill="#7f7f7f"
     d="M69 157L69 160L70 160z"
     id="path3586" />
  <path
     stroke="none"
     fill="#bbb8b9"
     d="M169.667 157.333L170.333 157.667L169.667 157.333z"
     id="path3588" />
  <path
     stroke="none"
     fill="#7f7f7f"
     d="M216 157L217 158z"
     id="path3590" />
  <path
     stroke="none"
     fill="#bfb730"
     d="M33.3333 158.667L33.6667 159.333L33.3333 158.667z"
     id="path3592" />
  <path
     stroke="none"
     fill="#7f7a20"
     d="M35.3333 158.667L35.6667 159.333L35.3333 158.667z"
     id="path3594" />
  <path
     stroke="none"
     fill="#beb7b8"
     d="M161 159L161 160L164 160z"
     id="path3596" />
  <path
     stroke="none"
     fill="#7f7f7f"
     d="M232 159L233 160L232 159M29 160L30 161z"
     id="path3598" />
  <path
     stroke="none"
     fill="#bfbfbf"
     d="M217.333 160.667L217.667 161.333L217.333 160.667z"
     id="path3600" />
  <path
     stroke="none"
     fill="#7f7a20"
     d="M32.3333 161.667L32.6667 162.333L32.3333 161.667z"
     id="path3602" />
  <path
     stroke="none"
     fill="#365512"
     d="M34 162L34 164L36 164L36 162z"
     id="path3604" />
  <path
     stroke="none"
     fill="#d2d2d2"
     d="M68 162L68 167L69 167z"
     id="path3606" />
  <path
     stroke="none"
     fill="#7f7f7f"
     d="M220 162L220 166L221 166L220 162M233 163L233 168L234 168z"
     id="path3608" />
  <path
     stroke="none"
     fill="#3f3f3f"
     d="M28.3333 164.667L28.6667 165.333L28.3333 164.667z"
     id="path3610" />
  <path
     stroke="none"
     fill="#000000"
     d="M34.3333 164.667L34.6667 165.333L34.3333 164.667z"
     id="path3612" />
  <path
     stroke="none"
     fill="#004018"
     d="M65 164L65 168L66 168z"
     id="path3614" />
  <path
     stroke="none"
     fill="#7f7f7f"
     d="M135 164L135 165L146 165L135 164M218 164L219 165z"
     id="path3616" />
  <path
     stroke="none"
     fill="#bfb730"
     d="M31.3333 165.667L31.6667 166.333L31.3333 165.667z"
     id="path3618" />
  <path
     stroke="none"
     fill="#818181"
     d="M67 165L67 168L68 168z"
     id="path3620" />
  <path
     stroke="none"
     fill="#7f7f7f"
     d="M131.667 165.333L132.333 165.667L131.667 165.333M148.667 165.333L149.333 165.667L148.667 165.333M128 166L129 167L128 166M151 166L152 167z"
     id="path3622" />
  <path
     stroke="none"
     fill="#bfbfbf"
     d="M219.667 166.333L220.333 166.667L219.667 166.333z"
     id="path3624" />
  <path
     stroke="none"
     fill="#7f7f7f"
     d="M27.3333 167.667L27.6667 168.333L27.3333 167.667z"
     id="path3626" />
  <path
     stroke="none"
     fill="#3f3f3f"
     d="M125.667 167.333L126.333 167.667L125.667 167.333z"
     id="path3628" />
  <path
     stroke="none"
     fill="#7f7f7f"
     d="M155 167L156 168L155 167M157 168L158 169z"
     id="path3630" />
  <path
     stroke="none"
     fill="#3f3f3f"
     d="M120.667 169.333L121.333 169.667L120.667 169.333z"
     id="path3632" />
  <path
     stroke="none"
     fill="#004018"
     d="M135 169L135 170L141 170z"
     id="path3634" />
  <path
     stroke="none"
     fill="#008131"
     d="M136 170C137.652 179.015 148.925 179.536 150 170z"
     id="path3636" />
  <path
     stroke="none"
     fill="#7f7a20"
     d="M30 170L31 171z"
     id="path3638" />
  <path
     stroke="none"
     fill="#365512"
     d="M33 170L33 175L34 175L33 170M126 170L126 171L129 171z"
     id="path3640" />
  <path
     stroke="none"
     fill="#004d28"
     d="M132 170C132.382 185.807 156.715 185.119 153 171L149 178L141 177L141 178L146 178L146 179C137.903 178.76 137.643 173.841 132 170z"
     id="path3642" />
  <path
     stroke="none"
     fill="#bfbfbf"
     d="M160.667 170.333L161.333 170.667L160.667 170.333z"
     id="path3644" />
  <path
     stroke="none"
     fill="#7f7f7f"
     d="M116 171L117 172z"
     id="path3646" />
  <path
     stroke="none"
     fill="#365512"
     d="M122.667 171.333L123.333 171.667L122.667 171.333z"
     id="path3648" />
  <path
     stroke="none"
     fill="#3f3f3f"
     d="M228.333 171.667L228.667 172.333L228.333 171.667z"
     id="path3650" />
  <path
     stroke="none"
     fill="#7f7f7f"
     d="M26 172L26 177L27 177L26 172M114 172L115 173z"
     id="path3652" />
  <path
     stroke="none"
     fill="#365512"
     d="M118.667 172.333L119.333 172.667L118.667 172.333z"
     id="path3654" />
  <path
     stroke="none"
     fill="#7f7a20"
     d="M29 173L29 177L30 177z"
     id="path3656" />
  <path
     stroke="none"
     fill="#365512"
     d="M130 173L130 177L131 177L130 173M58 174L58 175L63 175z"
     id="path3658" />
  <path
     stroke="none"
     fill="#3f3f3f"
     d="M227.333 174.667L227.667 175.333L227.333 174.667z"
     id="path3660" />
  <path
     stroke="none"
     fill="#404040"
     d="M66 175L66 178L67 178z"
     id="path3662" />
  <path
     stroke="none"
     fill="#dbdbdb"
     d="M67 175C67.5835 180.27 70.2004 184.588 75 187z"
     id="path3664" />
  <path
     stroke="none"
     fill="#004d28"
     d="M115 175C115.628 178.767 118.682 181.977 116 186C113.141 190.288 101.431 195.275 103 189L96 189C101.321 198.115 114.027 194.091 118.276 185.999C120.674 181.433 120.747 175.998 115 175z"
     id="path3666" />
  <path
     stroke="none"
     fill="#365512"
     d="M32 176L32 182L33 182z"
     id="path3668" />
  <path
     stroke="none"
     fill="#7f7f7f"
     d="M106 177L107 178z"
     id="path3670" />
  <path
     stroke="none"
     fill="#000000"
     d="M138 177L138 178L146 179z"
     id="path3672" />
  <path
     stroke="none"
     fill="#7f7f7f"
     d="M168 177L169 178z"
     id="path3674" />
  <path
     stroke="none"
     fill="#008131"
     d="M100 185C104.433 196.588 114.97 186.488 115 178z"
     id="path3676" />
  <path
     stroke="none"
     fill="#51801b"
     d="M229 178L228 185z"
     id="path3678" />
  <path
     stroke="none"
     fill="#7f7f7f"
     d="M103 179L104 180z"
     id="path3680" />
  <path
     stroke="none"
     fill="#365512"
     d="M121 179L121 184L122 184z"
     id="path3682" />
  <path
     stroke="none"
     fill="#7f7f7f"
     d="M226 179L227 180L226 179M233 179L233 184L234 184z"
     id="path3684" />
  <path
     stroke="none"
     fill="#606060"
     d="M68 181L69 182z"
     id="path3686" />
  <path
     stroke="none"
     fill="#004d28"
     d="M163 181C162.214 186.51 162.641 193.191 167.225 197.057C173.071 201.988 181.172 200.348 179 192L178 192C172.463 203.446 164.026 191.042 169 182z"
     id="path3688" />
  <path
     stroke="none"
     fill="#7f7a20"
     d="M31.3333 182.667L31.6667 183.333L31.3333 182.667z"
     id="path3690" />
  <path
     stroke="none"
     fill="#000000"
     d="M32 182L32 188L33 188z"
     id="path3692" />
  <path
     stroke="none"
     fill="#606060"
     d="M69 182L70 183z"
     id="path3694" />
  <path
     stroke="none"
     fill="#404040"
     d="M70.3333 183.667L70.6667 184.333L70.3333 183.667z"
     id="path3696" />
  <path
     stroke="none"
     fill="#365512"
     d="M137.667 183.333L138.333 183.667L137.667 183.333z"
     id="path3698" />
  <path
     stroke="none"
     fill="#3f3f3f"
     d="M224.333 183.667L224.667 184.333L224.333 183.667z"
     id="path3700" />
  <path
     stroke="none"
     fill="#7f7f7f"
     d="M26 184L26 191L27 191z"
     id="path3702" />
  <path
     stroke="none"
     fill="#365512"
     d="M33 184L32 191L33 191z"
     id="path3704" />
  <path
     stroke="none"
     fill="#7f7f7f"
     d="M94 184L95 185z"
     id="path3706" />
  <path
     stroke="none"
     fill="#008131"
     d="M169 184C163.499 197.355 184.807 197.244 173.025 186.968C171.741 185.848 170.403 184.96 169 184z"
     id="path3708" />
  <path
     stroke="none"
     fill="#404040"
     d="M72.3333 185.667L72.6667 186.333L72.3333 185.667z"
     id="path3710" />
  <path
     stroke="none"
     fill="#7f7f7f"
     d="M92 185L93 186z"
     id="path3712" />
  <path
     stroke="none"
     fill="#004d28"
     d="M61 200C70.2534 204.848 83.6372 209.009 84 194L83 194C75.6708 208.686 61.9545 199.869 68 186C61.1847 188.018 61.3369 193.908 61 200z"
     id="path3714" />
  <path
     stroke="none"
     fill="#808080"
     d="M73.6667 187.333L74.3333 187.667L73.6667 187.333z"
     id="path3716" />
  <path
     stroke="none"
     fill="#7f7a20"
     d="M29.3333 188.667L29.6667 189.333L29.3333 188.667z"
     id="path3718" />
  <path
     stroke="none"
     fill="#b9b9b9"
     d="M75.6667 188.333L76.3333 188.667L75.6667 188.333z"
     id="path3720" />
  <path
     stroke="none"
     fill="#365512"
     d="M161 188L161 192L162 192z"
     id="path3722" />
  <path
     stroke="none"
     fill="#7f7f7f"
     d="M178 188L179 189L178 188M232 188L233 189z"
     id="path3724" />
  <path
     stroke="none"
     fill="#000000"
     d="M33 189L33 192L34 192z"
     id="path3726" />
  <path
     stroke="none"
     fill="#008131"
     d="M68 189C64.7969 199.943 78.1711 205.713 80 194z"
     id="path3728" />
  <path
     stroke="none"
     fill="#808080"
     d="M77 189L78 190z"
     id="path3730" />
  <path
     stroke="none"
     fill="#3f3f3f"
     d="M83.6667 189.333L84.3333 189.667L83.6667 189.333z"
     id="path3732" />
  <path
     stroke="none"
     fill="#bfbfbf"
     d="M231.333 190.667L231.667 191.333L231.333 190.667z"
     id="path3734" />
  <path
     stroke="none"
     fill="#365512"
     d="M34 191L33 193L35 193z"
     id="path3736" />
  <path
     stroke="none"
     fill="#7f7f7f"
     d="M220 191L221 192z"
     id="path3738" />
  <path
     stroke="none"
     fill="#7f7a20"
     d="M30.3333 192.667L30.6667 193.333L30.3333 192.667z"
     id="path3740" />
  <path
     stroke="none"
     fill="#365512"
     d="M225.333 192.667L225.667 193.333L225.333 192.667z"
     id="path3742" />
  <path
     stroke="none"
     fill="#000000"
     d="M34.3333 193.667L34.6667 194.333L34.3333 193.667z"
     id="path3744" />
  <path
     stroke="none"
     fill="#004018"
     d="M77 193L77 194L80 196C80.951 193.493 79.348 193.294 77 193z"
     id="path3746" />
  <path
     stroke="none"
     fill="#365512"
     d="M85 193L85 199L86 199z"
     id="path3748" />
  <path
     stroke="none"
     fill="#7f7f7f"
     d="M230.333 193.667L230.667 194.333L230.333 193.667M27 194L27 197L28 197z"
     id="path3750" />
  <path
     stroke="none"
     fill="#365512"
     d="M35 194L36 197z"
     id="path3752" />
  <path
     stroke="none"
     fill="#7f7a20"
     d="M31 196L32 197z"
     id="path3754" />
  <path
     stroke="none"
     fill="#7f7f7f"
     d="M187 196L188 197z"
     id="path3756" />
  <path
     stroke="none"
     fill="#7f7a20"
     d="M132 197L132 198L140 198z"
     id="path3758" />
  <path
     stroke="none"
     fill="#000000"
     d="M140 197L140 198L143 198z"
     id="path3760" />
  <path
     stroke="none"
     fill="#3f3d10"
     d="M142 199L145 197z"
     id="path3762" />
  <path
     stroke="none"
     fill="#7f7f7f"
     d="M214 197L215 198z"
     id="path3764" />
  <path
     stroke="none"
     fill="#3f3d10"
     d="M223 197L225 200z"
     id="path3766" />
  <path
     stroke="none"
     fill="#7f7f7f"
     d="M229 197L230 198L229 197M28 198L29 199z"
     id="path3768" />
  <path
     stroke="none"
     fill="#000000"
     d="M144.667 198.333L145.333 198.667L144.667 198.333z"
     id="path3770" />
  <path
     stroke="none"
     fill="#3f3d10"
     d="M145 199L145 200L149 199z"
     id="path3772" />
  <path
     stroke="none"
     fill="#bfbfbf"
     d="M190.667 198.333L191.333 198.667L190.667 198.333z"
     id="path3774" />
  <path
     stroke="none"
     fill="#7f7f7f"
     d="M212 198L213 199z"
     id="path3776" />
  <path
     stroke="none"
     fill="#7f7a20"
     d="M32 199L33 200z"
     id="path3778" />
  <path
     stroke="none"
     fill="#5b6719"
     d="M128 199L125 201L125 202z"
     id="path3780" />
  <path
     stroke="none"
     fill="#000000"
     d="M129 199L130 200L129 199M147.667 199.333L148.333 199.667L147.667 199.333z"
     id="path3782" />
  <path
     stroke="none"
     fill="#7f7f7f"
     d="M210 199L211 200z"
     id="path3784" />
  <path
     stroke="none"
     fill="#3f3d10"
     d="M37.3333 200.667L37.6667 201.333L37.3333 200.667z"
     id="path3786" />
  <path
     stroke="none"
     fill="#7f7a20"
     d="M138 200L138 201L143 201z"
     id="path3788" />
  <path
     stroke="none"
     fill="#3f3d10"
     d="M148 200L148 201L151 201z"
     id="path3790" />
  <path
     stroke="none"
     fill="#7f7f7f"
     d="M195 200L196 201L195 200M208 200L209 201L208 200M228 200L229 201L228 200M29 201L30 202z"
     id="path3792" />
  <path
     stroke="none"
     fill="#004018"
     d="M72 201L72 202L76 202z"
     id="path3794" />
  <path
     stroke="none"
     fill="#7f7a20"
     d="M133.667 201.333L134.333 201.667L133.667 201.333M145.667 201.333L146.333 201.667L145.667 201.333z"
     id="path3796" />
  <path
     stroke="none"
     fill="#1b2a09"
     d="M151.667 201.333L152.333 201.667L151.667 201.333z"
     id="path3798" />
  <path
     stroke="none"
     fill="#365512"
     d="M169 201L169 202L172 202z"
     id="path3800" />
  <path
     stroke="none"
     fill="#7f7f7f"
     d="M198 201L198 202L206 202z"
     id="path3802" />
  <path
     stroke="none"
     fill="#000000"
     d="M222 201L221 204L222 204z"
     id="path3804" />
  <path
     stroke="none"
     fill="#1b2a09"
     d="M38 202L39 203z"
     id="path3806" />
  <path
     stroke="none"
     fill="#3f3d10"
     d="M123 202L123 204L125 202L123 202M130.667 202.333L131.333 202.667L130.667 202.333z"
     id="path3808" />
  <path
     stroke="none"
     fill="#1b2a09"
     d="M153 202L153 203L158 205L158 204z"
     id="path3810" />
  <path
     stroke="none"
     fill="#3f3d10"
     d="M222.667 202.333L223.333 202.667L222.667 202.333z"
     id="path3812" />
  <path
     stroke="none"
     fill="#7f7f7f"
     d="M227 202L228 203z"
     id="path3814" />
  <path
     stroke="none"
     fill="#bfbfbf"
     d="M30.3333 203.667L30.6667 204.333L30.3333 203.667z"
     id="path3816" />
  <path
     stroke="none"
     fill="#000000"
     d="M122 203L123 204z"
     id="path3818" />
  <path
     stroke="none"
     fill="#7f7a20"
     d="M128 203L129 204z"
     id="path3820" />
  <path
     stroke="none"
     fill="#004d28"
     d="M205 214C210 211.64 211.823 208.45 212 203z"
     id="path3822" />
  <path
     stroke="none"
     fill="#365512"
     d="M214 203L214 208L215 208z"
     id="path3824" />
  <path
     stroke="none"
     fill="#fff440"
     d="M222 203L223 204z"
     id="path3826" />
  <path
     stroke="none"
     fill="#7f7a20"
     d="M35 204L36 205z"
     id="path3828" />
  <path
     stroke="none"
     fill="#365512"
     d="M65.6667 204.333L66.3333 204.667L65.6667 204.333z"
     id="path3830" />
  <path
     stroke="none"
     fill="#3f3d10"
     d="M115 209L122 204z"
     id="path3832" />
  <path
     stroke="none"
     fill="#7f7f7f"
     d="M136 204L136 205L139 205z"
     id="path3834" />
  <path
     stroke="none"
     fill="#3f3f3f"
     d="M143.667 204.333L144.333 204.667L143.667 204.333z"
     id="path3836" />
  <path
     stroke="none"
     fill="#7f7a20"
     d="M152 204L153 205z"
     id="path3838" />
  <path
     stroke="none"
     fill="#004d28"
     d="M191 204C192.058 208.234 195.067 217.729 200 211L194 209L194 204z"
     id="path3840" />
  <path
     stroke="none"
     fill="#008131"
     d="M196 204C195.316 213.106 205.242 213.608 207 205z"
     id="path3842" />
  <path
     stroke="none"
     fill="#004018"
     d="M199 204L199 205L207 205z"
     id="path3844" />
  <path
     stroke="none"
     fill="#3f3d10"
     d="M220 204L220 210z"
     id="path3846" />
  <path
     stroke="none"
     fill="#7f7a20"
     d="M221 204L220 207z"
     id="path3848" />
  <path
     stroke="none"
     fill="#7f7f7f"
     d="M226 204L227 205z"
     id="path3850" />
  <path
     stroke="none"
     fill="#3f3d10"
     d="M124.667 205.333L125.333 205.667L124.667 205.333z"
     id="path3852" />
  <path
     stroke="none"
     fill="#bfbfbf"
     d="M133.667 205.333L134.333 205.667L133.667 205.333z"
     id="path3854" />
  <path
     stroke="none"
     fill="#7f7f7f"
     d="M146 205L147 206z"
     id="path3856" />
  <path
     stroke="none"
     fill="#1b2a09"
     d="M158 205L162 208z"
     id="path3858" />
  <path
     stroke="none"
     fill="#7f7f7f"
     d="M31 206L32 207z"
     id="path3860" />
  <path
     stroke="none"
     fill="#3f3f3f"
     d="M148.667 206.333L149.333 206.667L148.667 206.333z"
     id="path3862" />
  <path
     stroke="none"
     fill="#365512"
     d="M189 206L189 209L190 209z"
     id="path3864" />
  <path
     stroke="none"
     fill="#7f7f7f"
     d="M225 206L226 207z"
     id="path3866" />
  <path
     stroke="none"
     fill="#7f7a20"
     d="M157 207L158 208z"
     id="path3868" />
  <path
     stroke="none"
     fill="#fff440"
     d="M220 207L221 208z"
     id="path3870" />
  <path
     stroke="none"
     fill="#7f7a20"
     d="M120 208L121 209z"
     id="path3872" />
  <path
     stroke="none"
     fill="#7f7f7f"
     d="M127 208L128 209L127 208M153 208L154 209z"
     id="path3874" />
  <path
     stroke="none"
     fill="#000000"
     d="M162 208L163 209z"
     id="path3876" />
  <path
     stroke="none"
     fill="#fff440"
     d="M219 208L220 209z"
     id="path3878" />
  <path
     stroke="none"
     fill="#7f7a20"
     d="M38 209L39 210z"
     id="path3880" />
  <path
     stroke="none"
     fill="#1b2a09"
     d="M43 209L44 210z"
     id="path3882" />
  <path
     stroke="none"
     fill="#365512"
     d="M112 209L112 210L115 210z"
     id="path3884" />
  <path
     stroke="none"
     fill="#7f7a20"
     d="M160 209L161 210z"
     id="path3886" />
  <path
     stroke="none"
     fill="#3f3d10"
     d="M163 209L167 212z"
     id="path3888" />
  <path
     stroke="none"
     fill="#000000"
     d="M217 209L216 212L217 209M97 220L97 221C103.365 219.539 109.994 215.12 114 210z"
     id="path3890" />
  <path
     stroke="none"
     fill="#7f7f7f"
     d="M156 210L157 211z"
     id="path3892" />
  <path
     stroke="none"
     fill="#fff440"
     d="M218 210L219 211z"
     id="path3894" />
  <path
     stroke="none"
     fill="#1b2a09"
     d="M45 211C47.4525 216.147 51.8788 218.79 57 221z"
     id="path3896" />
  <path
     stroke="none"
     fill="#bfb730"
     d="M217 211L218 212z"
     id="path3898" />
  <path
     stroke="none"
     fill="#979797"
     d="M36 212L37 213z"
     id="path3900" />
  <path
     stroke="none"
     fill="#000000"
     d="M167 212L168 213z"
     id="path3902" />
  <path
     stroke="none"
     fill="#3f3d10"
     d="M215 212L213 216z"
     id="path3904" />
  <path
     stroke="none"
     fill="#fff440"
     d="M216.333 212.667L216.667 213.333L216.333 212.667z"
     id="path3906" />
  <path
     stroke="none"
     fill="#707070"
     d="M37 213L38 214z"
     id="path3908" />
  <path
     stroke="none"
     fill="#000000"
     d="M168 213L169 214z"
     id="path3910" />
  <path
     stroke="none"
     fill="#3f3d10"
     d="M112.667 214.333L113.333 214.667L112.667 214.333z"
     id="path3912" />
  <path
     stroke="none"
     fill="#7f7f7f"
     d="M118 214L119 215z"
     id="path3914" />
  <path
     stroke="none"
     fill="#1b2a09"
     d="M169 214L172 216z"
     id="path3916" />
  <path
     stroke="none"
     fill="#fff440"
     d="M215 214L216 215z"
     id="path3918" />
  <path
     stroke="none"
     fill="#7f7a20"
     d="M107 215L108 216z"
     id="path3920" />
  <path
     stroke="none"
     fill="#fff440"
     d="M214 215L215 216z"
     id="path3922" />
  <path
     stroke="none"
     fill="#7f7f7f"
     d="M219 215L220 216z"
     id="path3924" />
  <path
     stroke="none"
     fill="#365512"
     d="M198 216L198 217L206 217z"
     id="path3926" />
  <path
     stroke="none"
     fill="#000000"
     d="M212 216L211 218z"
     id="path3928" />
  <path
     stroke="none"
     fill="#bfb730"
     d="M213 216L214 217z"
     id="path3930" />
  <path
     stroke="none"
     fill="#1b2a09"
     d="M173 217L174 218z"
     id="path3932" />
  <path
     stroke="none"
     fill="#bfb730"
     d="M212 217L209 221z"
     id="path3934" />
  <path
     stroke="none"
     fill="#7f7a20"
     d="M103 218L104 219z"
     id="path3936" />
  <path
     stroke="none"
     fill="#365512"
     d="M174 218L177 220z"
     id="path3938" />
  <path
     stroke="none"
     fill="#7f7f7f"
     d="M111 219L112 220z"
     id="path3940" />
  <path
     stroke="none"
     fill="#000000"
     d="M57 220L57 221L63 223z"
     id="path3942" />
  <path
     stroke="none"
     fill="#1b2a09"
     d="M88 223L88 224L97 220z"
     id="path3944" />
  <path
     stroke="none"
     fill="#7f7a20"
     d="M173 220L174 221z"
     id="path3946" />
  <path
     stroke="none"
     fill="#1b2a09"
     d="M177 220L178 221z"
     id="path3948" />
  <path
     stroke="none"
     fill="#7f7a20"
     d="M51 221L52 222z"
     id="path3950" />
  <path
     stroke="none"
     fill="#bfb730"
     d="M97.6667 221.333L98.3333 221.667L97.6667 221.333z"
     id="path3952" />
  <path
     stroke="none"
     fill="#7f7f7f"
     d="M108 221L109 222z"
     id="path3954" />
  <path
     stroke="none"
     fill="#3f3d10"
     d="M178 221L182 224L182 223z"
     id="path3956" />
  <path
     stroke="none"
     fill="#bfb730"
     d="M208 221L209 222z"
     id="path3958" />
  <path
     stroke="none"
     fill="#7f7a20"
     d="M53 222L54 223z"
     id="path3960" />
  <path
     stroke="none"
     fill="#3f3d10"
     d="M63.3333 222.667L63.6667 223.333L63.3333 222.667z"
     id="path3962" />
  <path
     stroke="none"
     fill="#bfb730"
     d="M207 222L208 223z"
     id="path3964" />
  <path
     stroke="none"
     fill="#4f4f4f"
     d="M46.6667 223.333L47.3333 223.667L46.6667 223.333z"
     id="path3966" />
  <path
     stroke="none"
     fill="#000000"
     d="M64 223L64 224L75 225L75 224z"
     id="path3968" />
  <path
     stroke="none"
     fill="#365512"
     d="M67 223L67 224L70 224z"
     id="path3970" />
  <path
     stroke="none"
     fill="#7f7a20"
     d="M98 223L99 224z"
     id="path3972" />
  <path
     stroke="none"
     fill="#3f3d10"
     d="M205.333 223.667L205.667 224.333L205.333 223.667z"
     id="path3974" />
  <path
     stroke="none"
     fill="#bfb730"
     d="M206 223L207 224z"
     id="path3976" />
  <path
     stroke="none"
     fill="#6d6d6d"
     d="M48 224L49 225z"
     id="path3978" />
  <path
     stroke="none"
     fill="#3f3d10"
     d="M65.6667 224.333L66.3333 224.667L65.6667 224.333z"
     id="path3980" />
  <path
     stroke="none"
     fill="#365512"
     d="M75 224L75 225L85 225z"
     id="path3982" />
  <path
     stroke="none"
     fill="#000000"
     d="M85 224L85 225L88 225z"
     id="path3984" />
  <path
     stroke="none"
     fill="#7f7a20"
     d="M88 224L88 225L91 225L88 224M95 224L96 225z"
     id="path3986" />
  <path
     stroke="none"
     fill="#7f7f7f"
     d="M173 224L174 225z"
     id="path3988" />
  <path
     stroke="none"
     fill="#bfb730"
     d="M179.667 224.333L180.333 224.667L179.667 224.333z"
     id="path3990" />
  <path
     stroke="none"
     fill="#7f7a20"
     d="M59 225L60 226L59 225M71 225L71 226L86 226L71 225M93 225L94 226z"
     id="path3992" />
  <path
     stroke="none"
     fill="#7f7f7f"
     d="M102 225L103 226z"
     id="path3994" />
  <path
     stroke="none"
     fill="#7f7a20"
     d="M181 225L184 227z"
     id="path3996" />
  <path
     stroke="none"
     fill="#3f3d10"
     d="M199 228L204 226z"
     id="path3998" />
  <path
     stroke="none"
     fill="#c3c3c3"
     d="M50.3333 226.667L50.6667 227.333L50.3333 226.667z"
     id="path4000" />
  <path
     stroke="none"
     fill="#7f7a20"
     d="M63 226L64 227L63 226M89.6667 226.333L90.3333 226.667L89.6667 226.333z"
     id="path4002" />
  <path
     stroke="none"
     fill="#365512"
     d="M188 226L188 227L196 227z"
     id="path4004" />
  <path
     stroke="none"
     fill="#7f7a20"
     d="M65 227L65 228L71 228L65 227M84 227L84 228L87 228z"
     id="path4006" />
  <path
     stroke="none"
     fill="#bfbfbf"
     d="M97.6667 227.333L98.3333 227.667L97.6667 227.333z"
     id="path4008" />
  <path
     stroke="none"
     fill="#3f3d10"
     d="M184.667 227.333L185.333 227.667L184.667 227.333z"
     id="path4010" />
  <path
     stroke="none"
     fill="#7f7a20"
     d="M197.667 227.333L198.333 227.667L197.667 227.333z"
     id="path4012" />
  <path
     stroke="none"
     fill="#c3c3c3"
     d="M47 228L47 230L49 230L49 228z"
     id="path4014" />
  <path
     stroke="none"
     fill="#7f7f7f"
     d="M51 228L51 229L54 229L51 228M93 228L93 229L96 229L93 228M179 228L178 230z"
     id="path4016" />
  <path
     stroke="none"
     fill="#7f7a20"
     d="M187 228L188 229L187 228M195.667 228.333L196.333 228.667L195.667 228.333z"
     id="path4018" />
  <path
     stroke="none"
     fill="#7f7f7f"
     d="M205 228L206 229z"
     id="path4020" />
  <path
     stroke="none"
     fill="#bfbfbf"
     d="M207.667 229.333L208.333 229.667L207.667 229.333z"
     id="path4022" />
  <path
     stroke="none"
     fill="#7f7f7f"
     d="M42 230L47 233L47 232L45 230L42 230M93 230L93 231L97 231z"
     id="path4024" />
  <path
     stroke="none"
     fill="#3f3f3f"
     d="M175.667 230.333L176.333 230.667L175.667 230.333z"
     id="path4026" />
  <path
     stroke="none"
     fill="#7f7f7f"
     d="M210 230L210 231L213 231L210 230M101 231L101 232L104 232L101 231M168 232L168 233L172 231L168 232M215 231L215 232L218 232L215 231M105.333 232.667L105.667 233.333L105.333 232.667M51 233L51 234L55 234L51 233M176 233L176 234L180 234L176 233M218 233L219 234L218 233M59 234L59 235L66 235L59 234M96 234L96 235L101 235L96 234M185 234L185 235L188 235L185 234M212 234L212 235L215 235z"
     id="path4028" />
</svg>
