<?xml version="1.0" encoding="UTF-8"?>
<!DOCTYPE svg PUBLIC "-//W3C//DTD SVG 1.1 Tiny//EN" "http://www.w3.org/Graphics/SVG/1.1/DTD/svg11-tiny.dtd">
<svg xmlns="http://www.w3.org/2000/svg" xmlns:xlink="http://www.w3.org/1999/xlink" baseProfile="tiny" height="297mm" viewBox="0 0 235.0 235.0" width="210mm">
<defs>
<linearGradient gradientTransform="matrix(1.486812,0,0,1.486812,-232.8706,-178.825)" gradientUnits="userSpaceOnUse" x1="239.74998" x2="239.74998" xlink:href="#linearGradient4845" y1="263.20898" y2="119.94179"/>
<linearGradient gradientUnits="userSpaceOnUse" x1="239.74998" x2="239.74998" xlink:href="#linearGradient4845" y1="263.20898" y2="119.94179"/>
<linearGradient id="linearGradient4845">
<stop offset="0" style="stop-color:#d01f3c;stop-opacity:1"/>
<stop offset="0.5" style="stop-color:#d01f3c;stop-opacity:1"/>
<stop offset="0.5" style="stop-color:#d32c48;stop-opacity:1"/>
<stop offset="1" style="stop-color:#eb9fab;stop-opacity:1"/>
</linearGradient>
</defs>
<path d="M44 0L44 1L47 1L44 0M64 0L65 1z" fill="#7f7f7f" stroke="none"/>
<path d="M31 10L46 2C40.3364 0.135529 33.4844 5.11169 31 10z" fill="#000000" stroke="none"/>
<path d="M63.3333 1.66667L63.6667 2.33333L63.3333 1.66667z" fill="#bfbfbf" stroke="none"/>
<path d="M64 1L76 11C73.5874 5.82999 69.6596 2.14192 64 1z" fill="#000000" stroke="none"/>
<path d="M39.6667 2.33333L40.3333 2.66667L39.6667 2.33333z" fill="#3f3f3f" stroke="none"/>
<path d="M44 2L45 3L44 2M42 3L43 4L42 3M68 5L69 6z" fill="#7f7f7f" stroke="none"/>
<path d="M33 9L34 10L33 9M74 10L75 11L74 10M42.6667 11.3333L43.3333 11.6667L42.6667 11.3333z" fill="#7f7f7f" stroke="none"/>
<path d="M 10.474665,54.628745 C 10.474665,54.628745 7.9086903,50.925959 10.365042,50.051705 C 12.868149,49.16081 12.048599,46.634958 12.048599,46.634958 C 7.0102189,47.592558 3.5756,47.7905 2,53 L 7,52 L 9.75772,79 L 13.5556,91 L 11,110 L 19,102 C 13.798338,119.02013 5.07349,128.716 9,142 L 12.687821,135.34256 L 16,144 C 22.3157,139.538 18.221743,129.33518 18.591143,122.79318 C 18.838043,118.42018 20.032728,106.2658 21.636696,102.60468 C 24.689946,96.911155 17.978236,112.41473 16.147677,119.30401 C 14.317118,126.1933 13.674773,132.23021 13.675273,136.83971 L 17,138 L 12,130 L 11,133 L 10,133 L 28.961755,101.42192 C 34.259755,102.83792 36.4396,103.459 40.3472,107.51 C 43.9844,111.281 43.3012,118.26 42.561,123 C 40.5526,135.859 33.6061,147.579 29.8611,160 C 22.0601,185.874 28.0388,214.747 54,228 L 54,229 L 44,231 L 62,234.089 L 105,234 L 105,232 L 93,231 L 93,228 C 110.908,226.427 121.253,205.895 139,204.201 C 153.673,202.8 169.128,221.184 180,229 L 172,231 L 172,233 C 188.316,233.135 203.708,237.014 220,233 L 220,232 L 205,229 L 205,228 C 233.487,218.316 234.988,177.556 231,154 L 230,154 C 229.995,160.924 229.591,168.315 227.702,175 C 226.406,179.587 224.655,183.875 222.254,188 C 220.551,190.925 218.545,193.552 215.985,195.787 C 193.6,215.331 176.142,180.658 160,170.109 C 153.446,165.826 145.647,164.825 138,165.015 C 122.17,165.408 108.203,176.517 95,184 C 87.7295,188.121 79.7769,192.782 72.5185,186.072 C 58.6196,173.222 73.7955,145.619 75.7137,130 C 76.7559,121.514 74.6625,113.394 74,105 L 75,105 L 82,117 L 81.2785,98 L 90.1358,81 L 97,51 L 101,52 L 102,48 L 91,45 L 93,54 C 81.2022,43.7041 95.6353,32.5767 87.9715,21.0154 C 80.1567,9.22653 67.7453,13.3248 56.4244,13.6173 C 52.9129,13.708 49.5967,11.5094 46,11.4738 C 38.146,11.396 27.4109,17.9318 22.9699,24.1705 C 15.8576,34.1619 17.454899,51.677492 10.474665,54.628745 z " fill="#000000" stroke="none"/>
<path d="M39.6667 12.3333L40.3333 12.6667L39.6667 12.3333z" fill="#3f3f3f" stroke="none"/>
<path d="M60 12L61 13L60 12M73 12L73 13L76 13z" fill="#7f7f7f" stroke="none"/>
<path d="M35.6667 14.3333L36.3333 14.6667L35.6667 14.3333z" fill="#3f3f3f" stroke="none"/>
<path d="M62.6667 15.3333L63.3333 15.6667L62.6667 15.3333z" fill="#bfbfbf" stroke="none"/>
<path d="M74.6667 15.3333L75.3333 15.6667L74.6667 15.3333M82 15L83 16L82 15M30 17L31 18L30 17M36 17L37 18L36 17M53 18L54 19L53 18M57 18L57 25L58 25z" fill="#7f7f7f" stroke="none"/>
<path d="M53.6667 23.3333L54.3333 23.6667L53.6667 23.3333z" fill="#3f3f3f" stroke="none"/>
<path d="M64 24L65 25L64 24M86 24L87 25z" fill="#7f7f7f" stroke="none"/>
<path d="M23 31L24 32L23 31M39.3333 32.6667L39.6667 33.3333L39.3333 32.6667M90.3333 32.6667L90.6667 33.3333L90.3333 32.6667z" fill="#7f7f7f" stroke="none"/>
<path d="M 26,50 L 26.074586,49.993083 L 41.939247,50.596691 L 40,51 C 35.8871,51.7635 31.1952,52.6926 27.0394,51.6867 C 24.653,51.1091 21.8868,47.959 19.3542,49.1752 C 16.5553,50.5191 15.4053,55.3846 14.2809,58 C 9.35894,69.4479 9.86416,84.7675 20.0432,93.5324 C 41.321,111.854 78.3031,106.766 88.6705,78.9961 C 92.746,68.0798 88.8554,55.3252 85,45 C 85,45 76.919246,50.813627 70.624359,50.60333 C 64.329471,50.393033 62.015188,46.858967 58.925413,45.203024 C 55.835639,43.54708 55.721691,41.240828 52.745864,41.891137 C 49.770037,42.541446 50.853608,44.325593 47.917142,46.760048 C 44.980676,49.194503 41.895037,50.584749 41.895037,50.584749 L 26,50 z " fill="#6dab24" stroke="none"/>
<path d="M82 40L83 41L82 40M18.3333 42.6667L18.6667 43.3333L18.3333 42.6667M42 42L43 43L42 42M62.6667 42.3333L63.3333 42.6667L62.6667 42.3333z" fill="#7f7f7f" stroke="none"/>
<path d="M78.6667 42.3333L79.3333 42.6667L78.6667 42.3333z" fill="#3f3f3f" stroke="none"/>
<path d="M23.6667 44.3333L24.3333 44.6667L23.6667 44.3333M92.6667 44.3333L93.3333 44.6667L92.6667 44.3333M10 45L11 46L10 45M26 45L26 46L35 46L26 45M95 45L96 46L95 45M97 46L98 47z" fill="#7f7f7f" stroke="none"/>
<path d="M6.66667 47.3333L7.33333 47.6667L6.66667 47.3333z" fill="#3f3f3f" stroke="none"/>
<path d="M60 47L60 48L68 51z" fill="#1b2a09" stroke="none"/>
<path d="M91 47L92 48L91 47M15 48L16 49z" fill="#7f7f7f" stroke="none"/>
<path d="M 23,52.78984 C 26.1978,57.72234 34.944,55.99354 40,54.78984 L 40,53.78984 L 23,52.78984 z " style="fill:#365512;stroke:none"/>
<path d="M1.33333 50.6667L1.66667 51.3333L1.33333 50.6667z" fill="#bfbfbf" stroke="none"/>
<path d="M14 50L15 51z" fill="#7f7f7f" stroke="none"/>
<path d="M62 50C64.4306 54.0161 68.5101 54.7695 73 55L73 54z" fill="#1b2a09" stroke="none"/>
<path d="M89 50L90 51z" fill="#7f7f7f" stroke="none"/>
<path d="M10.3333 51.6667L10.6667 52.3333L10.3333 51.6667z" fill="#bfbfbf" stroke="none"/>
<path d="M70 51L70 52L76 52L70 51M87.3333 51.6667L87.6667 52.3333L87.3333 51.6667z" fill="#365512" stroke="none"/>
<path d="M97 51L98 52L97 51M101 51L102 52L101 51M4 52L5 53L4 52M6 52L7 53L6 52M90 52L91 53L90 52M10 53L12 56L10 53M12 53L13 54z" fill="#7f7f7f" stroke="none"/>
<path d="M32 54L32 55L37 54z" fill="#365512" stroke="none"/>
<path d="M92 53L93 54L92 53M96 53L97 54L96 53M7 55L8 56z" fill="#7f7f7f" stroke="none"/>
<path d="M89.3333 58.6667L89.6667 59.3333L89.3333 58.6667z" fill="#365512" stroke="none"/>
<path d="M93.3333 60.6667L93.6667 61.3333L93.3333 60.6667z" fill="#bfbfbf" stroke="none"/>
<path d="M8 68L8 71L9 71z" fill="#7f7f7f" stroke="none"/>
<path d="M92.3333 73.6667L92.6667 74.3333L92.3333 73.6667z" fill="#bfbfbf" stroke="none"/>
<path d="M31 74L31 80L32 80L31 74M37.4583 75.0857C34.874 76.7775 36.6999 81.3647 39.7222 79.8248C42.9484 78.1811 40.6876 72.9716 37.4583 75.0857z" fill="#000000" stroke="none"/>
<path d="M55.9861 75.8904C51.5773 76.0798 51.2944 81.7058 55.9645 81.7037C60.348 81.7017 60.2516 75.7073 55.9861 75.8904z" fill="#000000" stroke="none"/>
<path d="M91.3333 76.6667L91.6667 77.3333L91.3333 76.6667M9.33333 77.6667L9.66667 78.3333L9.33333 77.6667z" fill="#7f7f7f" stroke="none"/>
<path d="M90 80L91 81z" fill="#7f7f7f" stroke="none"/>
<path d="M89 82L90 83z" fill="#7f7f7f" stroke="none"/>
<path d="M 79.680824,100.27075 L 76.756155,104.15558 L 79.222869,109.79611 C 80.436978,110.99813 80.523436,106.54492 79.680824,100.27075 z " style="fill:#ffffff;stroke:none"/>
<path d="M84.3333 85.6667L84.6667 86.3333L84.3333 85.6667z" fill="#365512" stroke="none"/>
<path d="M84 91L85 92z" fill="#a22020" stroke="none"/>
<path d="M13.3333 92.6667L13.6667 93.3333L13.3333 92.6667z" fill="#7f7f7f" stroke="none"/>
<path d="M 15,94 L 13.915283,104.59302 L 17.735546,99.169433 L 15,94 z " fill="#7f7f7f" stroke="none" style="fill:#ffffff"/>
<path d="M18 95L19 96z" fill="#7f7f7f" stroke="none"/>
<path d="M69.6667 100.333L70.3333 100.667L69.6667 100.333z" fill="#365512" stroke="none"/>
<path d="M74.3333 100.667L74.6667 101.333L74.3333 100.667z" fill="#3f3f3f" stroke="none"/>
<path d="M78.3333 100.667L78.6667 101.333L78.3333 100.667z" fill="#7f7f7f" stroke="none"/>
<path d="M19 101L20 102z" fill="#7f7f7f" stroke="none"/>
<path d="M 22,101 L 9.0676696,133.82045 L 9.5828578,138.18376 L 12.93233,131.49173 L 16.744766,140.73289 L 18.15609,138.47518 L 16.642,119 L 26.367113,100.94519 L 22,101 z " fill="#f6725e" stroke="none" style="fill:#ff0000"/>
<path d="M65.6667 102.333L66.3333 102.667L65.6667 102.333z" fill="#365512" stroke="none"/>
<path d="M11.3333 103.667L11.6667 104.333L11.3333 103.667M17.6667 103.333L18.3333 103.667L17.6667 103.333z" fill="#7f7f7f" stroke="none"/>
<path d="M25 107L29 103z" fill="#3f3f3f" stroke="none"/>
<path d="M29.6667 103.333L30.3333 103.667L29.6667 103.333z" fill="#7f7f7f" stroke="none"/>
<path d="M59 103L59 104L62 104z" fill="#365512" stroke="none"/>
<path d="M33.6667 104.333L34.3333 104.667L33.6667 104.333z" fill="#3f3f3f" stroke="none"/>
<path d="M48 104L48 105L56 105z" fill="#365512" stroke="none"/>
<path d="M17 105L18 106L17 105M36.6667 105.333L37.3333 105.667L36.6667 105.333z" fill="#7f7f7f" stroke="none"/>
<path d="M 49,108 C 49,113.875 46.528659,124.52419 44.864829,129.92441 L 44.259449,136.57848 L 42.902624,140.94042 C 39.337945,155.08032 33.0642,163.033 34,175 L 33,175 L 33,172 L 32,172 L 36,201 L 44,212 C 48.4403,213.199 51.7879,217.096 56,219.11 C 65.5219,223.663 77.5163,225.752 88,223.481 C 107.433,219.273 124.755,190.918 145.91,197.989 C 151.193,199.755 156.648,203.628 161,207.015 C 165.094,210.202 169.634,213.328 172,218 C 182.308,219.255 186.718,228.904 199,225.2 C 205.292,223.302 211.399,217.971 215.185,212.711 C 217.795,209.084 219.563,203.503 224,202 L 228,184 L 227,184 L 213,201 L 213,202 C 220.312,217.248 185.891,223.753 191,202 C 182.983,197.654 179.81,203.359 172.001,201.693 C 161.857,199.529 158.743,186.7 166,180 L 155,173 C 152.439,189.6 130.462,185.556 130,170 L 119,173 C 122.113,181.086 121.767,186.531 114.714,192.581 C 108.588,197.835 97.8903,197.042 95,189 C 82.67,191.577 86.2689,210.473 71.0039,206.387 C 65.1329,204.816 57.5374,197.821 59.6466,191 C 61.0136,186.579 66.1413,184.265 65.0787,179.059 C 64.1798,174.654 57.7234,173.684 55.1582,169.906 C 48.664,160.342 56.5413,147.403 68,149 L 70,142 C 51.5403,137.611 58.0104,118.594 73,115 L 71,105 L 49,108 z " fill="#6dab24" stroke="none"/>
<path d="M24.3333 106.667L24.6667 107.333L24.3333 106.667z" fill="#000000" stroke="none"/>
<path d="M16 107L17 108z" fill="#7f7f7f" stroke="none"/>
<path d="M48 107L48 120L49 120L49 108L63 108z" fill="#365512" stroke="none"/>
<path d="M10.3333 108.667L10.6667 109.333L10.3333 108.667M13 108L12 110z" fill="#7f7f7f" stroke="none"/>
<path d="M15.3333 109.667L15.6667 110.333L15.3333 109.667z" fill="#3f3f3f" stroke="none"/>
<path d="M10.6667 110.333L11.3333 110.667L10.6667 110.333z" fill="#bfbfbf" stroke="none"/>
<path d="M 42.3333,110.667 L 42.6667,111.333 L 42.3333,110.667 M 24.586359,119.01657 L 22,112 L 24.586359,119.01657 z " fill="#7f7f7f" stroke="none"/>
<path d="M14.3333 112.667L14.6667 113.333L14.3333 112.667z" fill="#3f3f3f" stroke="none"/>
<path d="M72.3333 112.667L72.6667 113.333L72.3333 112.667z" fill="#365512" stroke="none"/>
<path d="M79.3333 114.667L79.6667 115.333L79.3333 114.667z" fill="#820000" stroke="none"/>
<path d="M13.3333 115.667L13.6667 116.333L13.3333 115.667z" fill="#7f7f7f" stroke="none"/>
<path d="M70 115L70 116L73 116z" fill="#365512" stroke="none"/>
<path d="M71 140L71 136C60.8776 133.148 63.1964 121.746 73 121C68.9895 111.065 52.3204 131.432 64.2122 138.543C66.305 139.795 68.6458 139.878 71 140z" fill="#004d28" stroke="none"/>
<path d="M67 121L65 126L66 126L69 121z" fill="#000000" stroke="none"/>
<path d="M72 134L73 121C64.8329 122.288 62.5591 133.248 72 134z" fill="#008131" stroke="none"/>
<path d="M42.3333 122.667L42.6667 123.333L42.3333 122.667z" fill="#3f3f3f" stroke="none"/>
<path d="M18 124L19 125z" fill="#7f7f7f" stroke="none"/>
<path d="M72 125L72 132L73 132z" fill="#004018" stroke="none"/>
<path d="M10.3333 129.667L10.6667 130.333L10.3333 129.667z" fill="#7b392f" stroke="none"/>
<path d="M43.3333 131.667L43.6667 132.333L43.3333 131.667z" fill="#bfb730" stroke="none"/>
<path d="M75 131L75 134L76 134z" fill="#404040" stroke="none"/>
<path d="M76.3333 132.667L76.6667 133.333L76.3333 132.667z" fill="#cbcbcb" stroke="none"/>
<path d="M43.3333 133.667L43.6667 134.333L43.3333 133.667z" fill="#fff440" stroke="none"/>
<path d="M42.3333 136.667L42.6667 137.333L42.3333 136.667z" fill="#fff440" stroke="none"/>
<path d="M74 137L74 140L75 140z" fill="#7f7f7f" stroke="none"/>
<path d="M10 139L9 143z" fill="#570000" stroke="none"/>
<path d="M19.3333 139.667L19.6667 140.333L19.3333 139.667z" fill="#b71b1b" stroke="none"/>
<path d="M37 139L38 140z" fill="#7f7f7f" stroke="none"/>
<path d="M41 139C35.4799 153.232 27.9674 169.339 29.0903 185C31.1763 214.095 59.3849 232.625 87 226.996C106.451 223.031 121.279 199.532 141 200.471C155.974 201.185 166.798 217.199 179 224C176.087 218.868 170.555 215.278 165.996 211.6C157.37 204.642 145.875 196.24 134 198.225C123.65 199.954 114.351 210.66 106 216.385C88.7204 228.231 65.8088 229.869 49.0147 215.671C32.7607 201.93 29.3303 182.724 34.3781 163C36.0673 156.399 42.7825 145.497 41 139z" fill="#fff440" stroke="none"/>
<path d="M42 140L38 153L39 153z" fill="#1b2a09" stroke="none"/>
<path d="M66 141L66 142L70 142z" fill="#365512" stroke="none"/>
<path d="M18.3333 142.667L18.6667 143.333L18.3333 142.667z" fill="#cf6767" stroke="none"/>
<path d="M73 142L74 143z" fill="#7f7f7f" stroke="none"/>
<path d="M69.3333 143.667L69.6667 144.333L69.3333 143.667z" fill="#365512" stroke="none"/>
<path d="M 212,161.31756 L 214,163.31756 L 212,161.31756 z " style="fill:#7f7f7f;stroke:none"/>
<path d="M16.6667 144.333L17.3333 144.667L16.6667 144.333z" fill="#6e2323" stroke="none"/>
<path d="M35 144L36 145z" fill="#7f7f7f" stroke="none"/>
<path d="M38.3333 144.667L38.6667 145.333L38.3333 144.667z" fill="#bfb730" stroke="none"/>
<path d="M 210,162.31756 L 219,184.31756 C 221.59,178.07256 216.549,164.43156 210,162.31756 z " style="fill:#000000;stroke:none"/>
<path d="M 209.333,163.98456 L 209.667,164.65056 L 209.333,163.98456 z " style="fill:#7f7f7f;stroke:none"/>
<path d="M72.3333 146.667L72.6667 147.333L72.3333 146.667z" fill="#bfbfbf" stroke="none"/>
<path d="M 214.333,164.98456 L 214.667,165.65056 L 214.333,164.98456 z " style="fill:#3f3f3f;stroke:none"/>
<path d="M62 148L62 149L66 149z" fill="#365512" stroke="none"/>
<path d="M36.3333 149.667L36.6667 150.333L36.3333 149.667z" fill="#7f7a20" stroke="none"/>
<path d="M59.6667 149.333L60.3333 149.667L59.6667 149.333z" fill="#365512" stroke="none"/>
<path d="M71.3333 149.667L71.6667 150.333L71.3333 149.667z" fill="#7f7f7f" stroke="none"/>
<path d="M215 149L216 150L215 149M32 151L33 152z" fill="#7f7f7f" stroke="none"/>
<path d="M64 172C59.0945 164.62 53.926 155.06 68 154L68 151C53.9557 151.301 48.1508 171.481 64 172z" fill="#004d28" stroke="none"/>
<path d="M229 151L229 154L230 154z" fill="#3f3f3f" stroke="none"/>
<path d="M37 152L37 158L38 158z" fill="#365512" stroke="none"/>
<path d="M31.3333 153.667L31.6667 154.333L31.3333 153.667z" fill="#7f7f7f" stroke="none"/>
<path d="M35 153L36 154z" fill="#7f7a20" stroke="none"/>
<path d="M70 153L71 154z" fill="#7f7f7f" stroke="none"/>
<path d="M229 154L229 164L230 164z" fill="#7f7f7f" stroke="none"/>
<path d="M64 155L64 156L66 159L67 159L67 155z" fill="#004018" stroke="none"/>
<path d="M 215,173.31756 L 216,174.31756 L 215,173.31756 z " style="fill:#7f7f7f;stroke:none"/>
<path d="M60 156C56.976 160.368 57.4415 163.075 59 168L60 168z" fill="#002614" stroke="none"/>
<path d="M65 168L66 156C58.4182 157.568 57.0834 165.785 65 168z" fill="#008131" stroke="none"/>
<path d="M218.333 156.667L218.667 157.333L218.333 156.667M231.333 156.667L231.667 157.333L231.333 156.667M30.3333 157.667L30.6667 158.333L30.3333 157.667z" fill="#3f3f3f" stroke="none"/>
<path d="M36 157L35 162L36 162z" fill="#000000" stroke="none"/>
<path d="M69 157L69 160L70 160z" fill="#7f7f7f" stroke="none"/>
<path d="M 216,179.73904 L 217,180.73904 L 216,179.73904 z " style="fill:#7f7f7f;stroke:none"/>
<path d="M33.3333 158.667L33.6667 159.333L33.3333 158.667z" fill="#bfb730" stroke="none"/>
<path d="M35.3333 158.667L35.6667 159.333L35.3333 158.667z" fill="#7f7a20" stroke="none"/>
<path d="M232 159L233 160L232 159M29 160L30 161z" fill="#7f7f7f" stroke="none"/>
<path d="M32.3333 161.667L32.6667 162.333L32.3333 161.667z" fill="#7f7a20" stroke="none"/>
<path d="M34 162L34 164L36 164L36 162z" fill="#365512" stroke="none"/>
<path d="M68 162L68 167L69 167z" fill="#d2d2d2" stroke="none"/>
<path d="M220 162L220 166L221 166L220 162M233 163L233 168L234 168z" fill="#7f7f7f" stroke="none"/>
<path d="M28.3333 164.667L28.6667 165.333L28.3333 164.667z" fill="#3f3f3f" stroke="none"/>
<path d="M34.3333 164.667L34.6667 165.333L34.3333 164.667z" fill="#000000" stroke="none"/>
<path d="M65 164L65 168L66 168z" fill="#004018" stroke="none"/>
<path d="M135 164L135 165L146 165L135 164M218 164L219 165z" fill="#7f7f7f" stroke="none"/>
<path d="M31.3333 165.667L31.6667 166.333L31.3333 165.667z" fill="#bfb730" stroke="none"/>
<path d="M67 165L67 168L68 168z" fill="#818181" stroke="none"/>
<path d="M131.667 165.333L132.333 165.667L131.667 165.333M148.667 165.333L149.333 165.667L148.667 165.333M128 166L129 167L128 166M151 166L152 167z" fill="#7f7f7f" stroke="none"/>
<path d="M 219.667,184.65056 L 220.333,184.98456 L 219.667,184.65056 z " style="fill:#bfbfbf;stroke:none"/>
<path d="M27.3333 167.667L27.6667 168.333L27.3333 167.667z" fill="#7f7f7f" stroke="none"/>
<path d="M125.667 167.333L126.333 167.667L125.667 167.333z" fill="#3f3f3f" stroke="none"/>
<path d="M155 167L156 168L155 167M157 168L158 169z" fill="#7f7f7f" stroke="none"/>
<path d="M120.667 169.333L121.333 169.667L120.667 169.333z" fill="#3f3f3f" stroke="none"/>
<path d="M135 169L135 170L141 170z" fill="#004018" stroke="none"/>
<path d="M136 170C137.652 179.015 148.925 179.536 150 170z" fill="#008131" stroke="none"/>
<path d="M30 170L31 171z" fill="#7f7a20" stroke="none"/>
<path d="M33 170L33 175L34 175L33 170M126 170L126 171L129 171z" fill="#365512" stroke="none"/>
<path d="M132 170C132.382 185.807 156.715 185.119 153 171L149 178L141 177L141 178L146 178L146 179C137.903 178.76 137.643 173.841 132 170z" fill="#004d28" stroke="none"/>
<path d="M160.667 170.333L161.333 170.667L160.667 170.333z" fill="#bfbfbf" stroke="none"/>
<path d="M116 171L117 172z" fill="#7f7f7f" stroke="none"/>
<path d="M122.667 171.333L123.333 171.667L122.667 171.333z" fill="#365512" stroke="none"/>
<path d="M228.333 171.667L228.667 172.333L228.333 171.667z" fill="#3f3f3f" stroke="none"/>
<path d="M26 172L26 177L27 177L26 172M114 172L115 173z" fill="#7f7f7f" stroke="none"/>
<path d="M118.667 172.333L119.333 172.667L118.667 172.333z" fill="#365512" stroke="none"/>
<path d="M29 173L29 177L30 177z" fill="#7f7a20" stroke="none"/>
<path d="M130 173L130 177L131 177L130 173M58 174L58 175L63 175z" fill="#365512" stroke="none"/>
<path d="M227.333 174.667L227.667 175.333L227.333 174.667z" fill="#3f3f3f" stroke="none"/>
<path d="M66 175L66 178L67 178z" fill="#404040" stroke="none"/>
<path d="M67 175C67.5835 180.27 70.2004 184.588 75 187z" fill="#dbdbdb" stroke="none"/>
<path d="M115 175C115.628 178.767 118.682 181.977 116 186C113.141 190.288 101.431 195.275 103 189L96 189C101.321 198.115 114.027 194.091 118.276 185.999C120.674 181.433 120.747 175.998 115 175z" fill="#004d28" stroke="none"/>
<path d="M32 176L32 182L33 182z" fill="#365512" stroke="none"/>
<path d="M106 177L107 178z" fill="#7f7f7f" stroke="none"/>
<path d="M138 177L138 178L146 179z" fill="#000000" stroke="none"/>
<path d="M168 177L169 178z" fill="#7f7f7f" stroke="none"/>
<path d="M100 185C104.433 196.588 114.97 186.488 115 178z" fill="#008131" stroke="none"/>
<path d="M229 178L228 185z" fill="#51801b" stroke="none"/>
<path d="M103 179L104 180z" fill="#7f7f7f" stroke="none"/>
<path d="M121 179L121 184L122 184z" fill="#365512" stroke="none"/>
<path d="M226 179L227 180L226 179M233 179L233 184L234 184z" fill="#7f7f7f" stroke="none"/>
<path d="M68 181L69 182z" fill="#606060" stroke="none"/>
<path d="M163 181C162.214 186.51 162.641 193.191 167.225 197.057C173.071 201.988 181.172 200.348 179 192L178 192C172.463 203.446 164.026 191.042 169 182z" fill="#004d28" stroke="none"/>
<path d="M31.3333 182.667L31.6667 183.333L31.3333 182.667z" fill="#7f7a20" stroke="none"/>
<path d="M32 182L32 188L33 188z" fill="#000000" stroke="none"/>
<path d="M69 182L70 183z" fill="#606060" stroke="none"/>
<path d="M70.3333 183.667L70.6667 184.333L70.3333 183.667z" fill="#404040" stroke="none"/>
<path d="M137.667 183.333L138.333 183.667L137.667 183.333z" fill="#365512" stroke="none"/>
<path d="M 224.333,189.35176 L 224.667,190.01776 L 224.333,189.35176 z " style="fill:#3f3f3f;stroke:none"/>
<path d="M26 184L26 191L27 191z" fill="#7f7f7f" stroke="none"/>
<path d="M33 184L32 191L33 191z" fill="#365512" stroke="none"/>
<path d="M94 184L95 185z" fill="#7f7f7f" stroke="none"/>
<path d="M169 184C163.499 197.355 184.807 197.244 173.025 186.968C171.741 185.848 170.403 184.96 169 184z" fill="#008131" stroke="none"/>
<path d="M72.3333 185.667L72.6667 186.333L72.3333 185.667z" fill="#404040" stroke="none"/>
<path d="M92 185L93 186z" fill="#7f7f7f" stroke="none"/>
<path d="M61 200C70.2534 204.848 83.6372 209.009 84 194L83 194C75.6708 208.686 61.9545 199.869 68 186C61.1847 188.018 61.3369 193.908 61 200z" fill="#004d28" stroke="none"/>
<path d="M73.6667 187.333L74.3333 187.667L73.6667 187.333z" fill="#808080" stroke="none"/>
<path d="M29.3333 188.667L29.6667 189.333L29.3333 188.667z" fill="#7f7a20" stroke="none"/>
<path d="M75.6667 188.333L76.3333 188.667L75.6667 188.333z" fill="#b9b9b9" stroke="none"/>
<path d="M161 188L161 192L162 192z" fill="#365512" stroke="none"/>
<path d="M178 188L179 189L178 188M232 188L233 189z" fill="#7f7f7f" stroke="none"/>
<path d="M33 189L33 192L34 192z" fill="#000000" stroke="none"/>
<path d="M68 189C64.7969 199.943 78.1711 205.713 80 194z" fill="#008131" stroke="none"/>
<path d="M77 189L78 190z" fill="#808080" stroke="none"/>
<path d="M83.6667 189.333L84.3333 189.667L83.6667 189.333z" fill="#3f3f3f" stroke="none"/>
<path d="M231.333 190.667L231.667 191.333L231.333 190.667z" fill="#bfbfbf" stroke="none"/>
<path d="M34 191L33 193L35 193z" fill="#365512" stroke="none"/>
<path d="M220 191L221 192z" fill="#7f7f7f" stroke="none"/>
<path d="M30.3333 192.667L30.6667 193.333L30.3333 192.667z" fill="#7f7a20" stroke="none"/>
<path d="M225.333 192.667L225.667 193.333L225.333 192.667z" fill="#365512" stroke="none"/>
<path d="M34.3333 193.667L34.6667 194.333L34.3333 193.667z" fill="#000000" stroke="none"/>
<path d="M77 193L77 194L80 196C80.951 193.493 79.348 193.294 77 193z" fill="#004018" stroke="none"/>
<path d="M85 193L85 199L86 199z" fill="#365512" stroke="none"/>
<path d="M230.333 193.667L230.667 194.333L230.333 193.667M27 194L27 197L28 197z" fill="#7f7f7f" stroke="none"/>
<path d="M35 194L36 197z" fill="#365512" stroke="none"/>
<path d="M31 196L32 197z" fill="#7f7a20" stroke="none"/>
<path d="M187 196L188 197z" fill="#7f7f7f" stroke="none"/>
<path d="M132 197L132 198L140 198z" fill="#7f7a20" stroke="none"/>
<path d="M140 197L140 198L143 198z" fill="#000000" stroke="none"/>
<path d="M142 199L145 197z" fill="#3f3d10" stroke="none"/>
<path d="M214 197L215 198z" fill="#7f7f7f" stroke="none"/>
<path d="M223 197L225 200z" fill="#3f3d10" stroke="none"/>
<path d="M229 197L230 198L229 197M28 198L29 199z" fill="#7f7f7f" stroke="none"/>
<path d="M144.667 198.333L145.333 198.667L144.667 198.333z" fill="#000000" stroke="none"/>
<path d="M145 199L145 200L149 199z" fill="#3f3d10" stroke="none"/>
<path d="M190.667 198.333L191.333 198.667L190.667 198.333z" fill="#bfbfbf" stroke="none"/>
<path d="M212 198L213 199z" fill="#7f7f7f" stroke="none"/>
<path d="M32 199L33 200z" fill="#7f7a20" stroke="none"/>
<path d="M128 199L125 201L125 202z" fill="#5b6719" stroke="none"/>
<path d="M129 199L130 200L129 199M147.667 199.333L148.333 199.667L147.667 199.333z" fill="#000000" stroke="none"/>
<path d="M210 199L211 200z" fill="#7f7f7f" stroke="none"/>
<path d="M37.3333 200.667L37.6667 201.333L37.3333 200.667z" fill="#3f3d10" stroke="none"/>
<path d="M138 200L138 201L143 201z" fill="#7f7a20" stroke="none"/>
<path d="M148 200L148 201L151 201z" fill="#3f3d10" stroke="none"/>
<path d="M195 200L196 201L195 200M208 200L209 201L208 200M228 200L229 201L228 200M29 201L30 202z" fill="#7f7f7f" stroke="none"/>
<path d="M72 201L72 202L76 202z" fill="#004018" stroke="none"/>
<path d="M133.667 201.333L134.333 201.667L133.667 201.333M145.667 201.333L146.333 201.667L145.667 201.333z" fill="#7f7a20" stroke="none"/>
<path d="M151.667 201.333L152.333 201.667L151.667 201.333z" fill="#1b2a09" stroke="none"/>
<path d="M169 201L169 202L172 202z" fill="#365512" stroke="none"/>
<path d="M198 201L198 202L206 202z" fill="#7f7f7f" stroke="none"/>
<path d="M222 201L221 204L222 204z" fill="#000000" stroke="none"/>
<path d="M38 202L39 203z" fill="#1b2a09" stroke="none"/>
<path d="M123 202L123 204L125 202L123 202M130.667 202.333L131.333 202.667L130.667 202.333z" fill="#3f3d10" stroke="none"/>
<path d="M153 202L153 203L158 205L158 204z" fill="#1b2a09" stroke="none"/>
<path d="M222.667 202.333L223.333 202.667L222.667 202.333z" fill="#3f3d10" stroke="none"/>
<path d="M227 202L228 203z" fill="#7f7f7f" stroke="none"/>
<path d="M30.3333 203.667L30.6667 204.333L30.3333 203.667z" fill="#bfbfbf" stroke="none"/>
<path d="M122 203L123 204z" fill="#000000" stroke="none"/>
<path d="M128 203L129 204z" fill="#7f7a20" stroke="none"/>
<path d="M205 214C210 211.64 211.823 208.45 212 203z" fill="#004d28" stroke="none"/>
<path d="M214 203L214 208L215 208z" fill="#365512" stroke="none"/>
<path d="M222 203L223 204z" fill="#fff440" stroke="none"/>
<path d="M35 204L36 205z" fill="#7f7a20" stroke="none"/>
<path d="M65.6667 204.333L66.3333 204.667L65.6667 204.333z" fill="#365512" stroke="none"/>
<path d="M115 209L122 204z" fill="#3f3d10" stroke="none"/>
<path d="M136 204L136 205L139 205z" fill="#7f7f7f" stroke="none"/>
<path d="M143.667 204.333L144.333 204.667L143.667 204.333z" fill="#3f3f3f" stroke="none"/>
<path d="M152 204L153 205z" fill="#7f7a20" stroke="none"/>
<path d="M191 204C192.058 208.234 195.067 217.729 200 211L194 209L194 204z" fill="#004d28" stroke="none"/>
<path d="M196 204C195.316 213.106 205.242 213.608 207 205z" fill="#008131" stroke="none"/>
<path d="M199 204L199 205L207 205z" fill="#004018" stroke="none"/>
<path d="M220 204L220 210z" fill="#3f3d10" stroke="none"/>
<path d="M221 204L220 207z" fill="#7f7a20" stroke="none"/>
<path d="M226 204L227 205z" fill="#7f7f7f" stroke="none"/>
<path d="M124.667 205.333L125.333 205.667L124.667 205.333z" fill="#3f3d10" stroke="none"/>
<path d="M133.667 205.333L134.333 205.667L133.667 205.333z" fill="#bfbfbf" stroke="none"/>
<path d="M146 205L147 206z" fill="#7f7f7f" stroke="none"/>
<path d="M158 205L162 208z" fill="#1b2a09" stroke="none"/>
<path d="M31 206L32 207z" fill="#7f7f7f" stroke="none"/>
<path d="M148.667 206.333L149.333 206.667L148.667 206.333z" fill="#3f3f3f" stroke="none"/>
<path d="M189 206L189 209L190 209z" fill="#365512" stroke="none"/>
<path d="M225 206L226 207z" fill="#7f7f7f" stroke="none"/>
<path d="M157 207L158 208z" fill="#7f7a20" stroke="none"/>
<path d="M220 207L221 208z" fill="#fff440" stroke="none"/>
<path d="M120 208L121 209z" fill="#7f7a20" stroke="none"/>
<path d="M127 208L128 209L127 208M153 208L154 209z" fill="#7f7f7f" stroke="none"/>
<path d="M162 208L163 209z" fill="#000000" stroke="none"/>
<path d="M219 208L220 209z" fill="#fff440" stroke="none"/>
<path d="M38 209L39 210z" fill="#7f7a20" stroke="none"/>
<path d="M43 209L44 210z" fill="#1b2a09" stroke="none"/>
<path d="M112 209L112 210L115 210z" fill="#365512" stroke="none"/>
<path d="M160 209L161 210z" fill="#7f7a20" stroke="none"/>
<path d="M163 209L167 212z" fill="#3f3d10" stroke="none"/>
<path d="M217 209L216 212L217 209M97 220L97 221C103.365 219.539 109.994 215.12 114 210z" fill="#000000" stroke="none"/>
<path d="M156 210L157 211z" fill="#7f7f7f" stroke="none"/>
<path d="M218 210L219 211z" fill="#fff440" stroke="none"/>
<path d="M45 211C47.4525 216.147 51.8788 218.79 57 221z" fill="#1b2a09" stroke="none"/>
<path d="M217 211L218 212z" fill="#bfb730" stroke="none"/>
<path d="M36 212L37 213z" fill="#979797" stroke="none"/>
<path d="M167 212L168 213z" fill="#000000" stroke="none"/>
<path d="M215 212L213 216z" fill="#3f3d10" stroke="none"/>
<path d="M216.333 212.667L216.667 213.333L216.333 212.667z" fill="#fff440" stroke="none"/>
<path d="M37 213L38 214z" fill="#707070" stroke="none"/>
<path d="M168 213L169 214z" fill="#000000" stroke="none"/>
<path d="M112.667 214.333L113.333 214.667L112.667 214.333z" fill="#3f3d10" stroke="none"/>
<path d="M118 214L119 215z" fill="#7f7f7f" stroke="none"/>
<path d="M169 214L172 216z" fill="#1b2a09" stroke="none"/>
<path d="M215 214L216 215z" fill="#fff440" stroke="none"/>
<path d="M107 215L108 216z" fill="#7f7a20" stroke="none"/>
<path d="M214 215L215 216z" fill="#fff440" stroke="none"/>
<path d="M219 215L220 216z" fill="#7f7f7f" stroke="none"/>
<path d="M198 216L198 217L206 217z" fill="#365512" stroke="none"/>
<path d="M212 216L211 218z" fill="#000000" stroke="none"/>
<path d="M213 216L214 217z" fill="#bfb730" stroke="none"/>
<path d="M173 217L174 218z" fill="#1b2a09" stroke="none"/>
<path d="M212 217L209 221z" fill="#bfb730" stroke="none"/>
<path d="M103 218L104 219z" fill="#7f7a20" stroke="none"/>
<path d="M174 218L177 220z" fill="#365512" stroke="none"/>
<path d="M111 219L112 220z" fill="#7f7f7f" stroke="none"/>
<path d="M57 220L57 221L63 223z" fill="#000000" stroke="none"/>
<path d="M88 223L88 224L97 220z" fill="#1b2a09" stroke="none"/>
<path d="M173 220L174 221z" fill="#7f7a20" stroke="none"/>
<path d="M177 220L178 221z" fill="#1b2a09" stroke="none"/>
<path d="M51 221L52 222z" fill="#7f7a20" stroke="none"/>
<path d="M97.6667 221.333L98.3333 221.667L97.6667 221.333z" fill="#bfb730" stroke="none"/>
<path d="M108 221L109 222z" fill="#7f7f7f" stroke="none"/>
<path d="M178 221L182 224L182 223z" fill="#3f3d10" stroke="none"/>
<path d="M208 221L209 222z" fill="#bfb730" stroke="none"/>
<path d="M53 222L54 223z" fill="#7f7a20" stroke="none"/>
<path d="M63.3333 222.667L63.6667 223.333L63.3333 222.667z" fill="#3f3d10" stroke="none"/>
<path d="M207 222L208 223z" fill="#bfb730" stroke="none"/>
<path d="M46.6667 223.333L47.3333 223.667L46.6667 223.333z" fill="#4f4f4f" stroke="none"/>
<path d="M64 223L64 224L75 225L75 224z" fill="#000000" stroke="none"/>
<path d="M67 223L67 224L70 224z" fill="#365512" stroke="none"/>
<path d="M98 223L99 224z" fill="#7f7a20" stroke="none"/>
<path d="M205.333 223.667L205.667 224.333L205.333 223.667z" fill="#3f3d10" stroke="none"/>
<path d="M206 223L207 224z" fill="#bfb730" stroke="none"/>
<path d="M48 224L49 225z" fill="#6d6d6d" stroke="none"/>
<path d="M65.6667 224.333L66.3333 224.667L65.6667 224.333z" fill="#3f3d10" stroke="none"/>
<path d="M75 224L75 225L85 225z" fill="#365512" stroke="none"/>
<path d="M85 224L85 225L88 225z" fill="#000000" stroke="none"/>
<path d="M88 224L88 225L91 225L88 224M95 224L96 225z" fill="#7f7a20" stroke="none"/>
<path d="M173 224L174 225z" fill="#7f7f7f" stroke="none"/>
<path d="M179.667 224.333L180.333 224.667L179.667 224.333z" fill="#bfb730" stroke="none"/>
<path d="M59 225L60 226L59 225M71 225L71 226L86 226L71 225M93 225L94 226z" fill="#7f7a20" stroke="none"/>
<path d="M102 225L103 226z" fill="#7f7f7f" stroke="none"/>
<path d="M181 225L184 227z" fill="#7f7a20" stroke="none"/>
<path d="M199 228L204 226z" fill="#3f3d10" stroke="none"/>
<path d="M50.3333 226.667L50.6667 227.333L50.3333 226.667z" fill="#c3c3c3" stroke="none"/>
<path d="M63 226L64 227L63 226M89.6667 226.333L90.3333 226.667L89.6667 226.333z" fill="#7f7a20" stroke="none"/>
<path d="M188 226L188 227L196 227z" fill="#365512" stroke="none"/>
<path d="M65 227L65 228L71 228L65 227M84 227L84 228L87 228z" fill="#7f7a20" stroke="none"/>
<path d="M97.6667 227.333L98.3333 227.667L97.6667 227.333z" fill="#bfbfbf" stroke="none"/>
<path d="M184.667 227.333L185.333 227.667L184.667 227.333z" fill="#3f3d10" stroke="none"/>
<path d="M197.667 227.333L198.333 227.667L197.667 227.333z" fill="#7f7a20" stroke="none"/>
<path d="M47 228L47 230L49 230L49 228z" fill="#c3c3c3" stroke="none"/>
<path d="M51 228L51 229L54 229L51 228M93 228L93 229L96 229L93 228M179 228L178 230z" fill="#7f7f7f" stroke="none"/>
<path d="M187 228L188 229L187 228M195.667 228.333L196.333 228.667L195.667 228.333z" fill="#7f7a20" stroke="none"/>
<path d="M205 228L206 229z" fill="#7f7f7f" stroke="none"/>
<path d="M207.667 229.333L208.333 229.667L207.667 229.333z" fill="#bfbfbf" stroke="none"/>
<path d="M42 230L47 233L47 232L45 230L42 230M93 230L93 231L97 231z" fill="#7f7f7f" stroke="none"/>
<path d="M175.667 230.333L176.333 230.667L175.667 230.333z" fill="#3f3f3f" stroke="none"/>
<path d="M210 230L210 231L213 231L210 230M101 231L101 232L104 232L101 231M168 232L168 233L172 231L168 232M215 231L215 232L218 232L215 231M105.333 232.667L105.667 233.333L105.333 232.667M51 233L51 234L55 234L51 233M176 233L176 234L180 234L176 233M218 233L219 234L218 233M59 234L59 235L66 235L59 234M96 234L96 235L101 235L96 234M185 234L185 235L188 235L185 234M212 234L212 235L215 235z" fill="#7f7f7f" stroke="none"/>
<path d="M 51.896722,84.530167 C 67.21643,86.586287 62.322215,76.122336 62.322215,76.122336" style="fill:none;fill-rule:evenodd;stroke:#000000;stroke-width:1px;stroke-linecap:butt;stroke-linejoin:miter;stroke-opacity:0.80104715;filter:url(#filter4576)"/>
<path d="M 133.84375 202.21875 C 125.66941 202.26374 117.15892 207.17353 104.6875 215.1875 C 78.571788 231.96911 71.327227 248.14437 66.15625 281.0625 C 61.139549 312.99849 104.58693 320.31435 131.5 304.84375 C 136.06023 302.22237 140.19822 299.13423 143.875 295.59375 C 135.69336 294.90733 128.00001 290.23802 123.5625 282.40625 C 116.64483 270.19725 120.0298 254.51447 131.3125 246.53125 C 141.79875 239.11157 155.76188 240.68509 164.46875 249.875 C 165.21005 242.12323 165.04427 233.86982 163.90625 225.1875 L 157.15625 214.75 C 148.00894 205.93615 141.0564 202.17905 133.84375 202.21875 z " style="fill:#ffffff;fill-opacity:1" transform="matrix(0.3158201,0,0,0.3158201,0,-48.678569)"/>
<path d="M 68.947476,16.469196 C 66.753404,16.520286 64.686946,16.877428 63.025849,17.554828 C 58.597634,19.360659 56.02797,24.270827 55.416558,29.407951 C 55.647777,29.210876 55.894947,29.016852 56.156762,28.845396 C 59.331341,26.766463 63.637921,27.409549 66.01627,30.306064 L 67.022947,31.944381 C 68.50137,35.347775 66.978473,39.26931 63.539057,40.915646 C 61.877704,41.710877 60.04939,41.832146 58.377372,41.399245 C 62.696044,46.5349 71.433229,49.16499 77.504227,46.689232 C 84.649101,43.775542 89.304481,34.683533 86.327451,27.690679 L 83.869976,21.729575 C 81.024556,18.193637 74.554546,16.338636 68.947476,16.469196 z " style="fill:#ffffff;fill-opacity:1"/>
<path d="M 63.6667,26.3333 L 64.3333,26.6667 L 63.6667,26.3333 z " style="fill:#004c70;stroke:none"/>
<path d="M 22.3333,33.6667 L 22.6667,34.3333 L 22.3333,33.6667 z " style="fill:#bfbfbf;stroke:none"/>
<path d="M 40,35 L 41,36 L 40,35 z " style="fill:#7f7f7f;stroke:none"/>
<path d="M 54.3333,35.6667 L 54.6667,36.3333 L 54.3333,35.6667 z " style="fill:#004c70;stroke:none"/>
<path d="M 12.6667,44.3333 L 13.3333,44.6667 L 12.6667,44.3333 z " style="fill:#bfbfbf;stroke:none"/>
<path d="M 144.09375 253.1875 C 141.48011 253.28504 138.83907 254.23424 136.53125 256.125 C 130.37705 261.16703 128.53922 271.07029 132.3125 278.78125 C 136.08578 286.4922 144.2074 289.36786 150.875 285.375 C 151.40558 285.05726 151.89254 284.72792 152.375 284.34375 C 147.72415 284.4771 143.15643 282.24696 140.65625 278.21875 C 137.16597 272.59532 138.90111 265.3958 144.59375 261.71875 C 148.01745 259.50729 152.17439 259.03812 155.875 260.125 L 155.65625 259.65625 C 152.7746 255.26568 148.44981 253.02494 144.09375 253.1875 z " style="fill:#22aeff;fill-opacity:1" transform="matrix(0.3158201,0,0,0.3158201,0,-48.678569)"/>
<path d="M 191.40625 248.71875 C 188.61837 248.80816 185.80543 249.70416 183.34375 251.4375 C 181.8735 252.47274 180.64995 253.74676 179.65625 255.15625 C 184.67137 252.59856 190.82781 253.96288 194.375 258.6875 L 196.03125 261.65625 C 198.46739 267.78961 195.97997 274.8456 190.3125 277.8125 C 189.19884 278.3955 188.01458 278.80017 186.84375 279 C 190.58279 280.36107 194.82204 280.20728 198.625 278.25 C 205.73712 274.58959 208.90087 265.87948 205.84375 258.3125 L 203.75 254.65625 C 200.67624 250.63123 196.05272 248.56973 191.40625 248.71875 z " style="fill:#22aeff;fill-opacity:1" transform="matrix(0.3158201,0,0,0.3158201,0,-48.678569)"/>
<g>
<text style="font-size:10.23682404px;font-style:normal;font-weight:normal;line-height:125%;fill:#000000;fill-opacity:1;stroke:none;stroke-width:1px;stroke-linecap:butt;stroke-linejoin:miter;stroke-opacity:1;font-family:Bitstream Vera Sans" transform="scale(0.9981505,1.0018529)" x="104.6527" y="39.473545"/>
<text style="font-size:16.49919128px;font-style:normal;font-weight:normal;fill:#000000;fill-opacity:1;stroke:none;stroke-width:1px;stroke-linecap:butt;stroke-linejoin:miter;stroke-opacity:1;font-family:Bitstream Vera Sans" transform="scale(1.3749325,0.7273084)" x="74.983383" y="68.910774"/>
</g>
<g style="display:inline;fill:#be0000;fill-opacity:1" transform="matrix(0.460959,0,0,0.4143593,104.77487,54.886175)">
<rect height="256.00003" style="fill:#be0000;fill-opacity:1;fill-rule:evenodd;stroke:none;stroke-width:1px;stroke-linecap:butt;stroke-linejoin:miter;stroke-opacity:1;display:inline" width="256.00003" x="5.9030761e-005" y="0.18046308"/>
</g>
<g style="display:inline" transform="matrix(0.5186262,0,0,0.5186262,97.514103,39.259824)">
<path d="M 19.950659,128.18048 C 19.950659,164.08699 49.092174,193.2285 84.998684,193.2285 C 105.33955,193.2285 123.52137,183.84447 135.45737,169.20719 L 126.09442,149.41401 C 118.42977,164.07435 102.68909,174.0858 84.998684,174.0858 C 59.644302,174.0858 39.046901,153.53486 39.046901,128.18048 C 39.046901,103.31896 59.995576,82.228693 84.998684,82.228693 C 102.67698,82.228693 119.40008,91.75828 127.58508,110.50044 C 133.36994,123.74668 141.71479,143.11897 151.8747,165.59903 C 161.9882,187.97643 179.35247,192.67095 196.23081,192.67095 C 208.51229,192.67093 236.04949,182.96962 236.04949,153.40982 C 236.04949,132.59513 223.97256,124.96684 212.30696,120.93227 C 203.73357,117.96713 198.8419,116.58464 187.21701,112.24371 C 180.20379,109.62487 175.22959,105.033 175.22959,96.864498 C 175.22957,79.489702 199.93456,77.184148 210.82015,91.521268 L 224.61962,84.087208 C 218.31393,73.798989 210.66973,65.269743 191.95622,65.269743 C 172.76033,65.269743 157.99186,77.077945 157.99186,97.654367 C 157.99186,116.55649 169.6503,124.06889 182.43133,129.48144 C 190.46947,132.88542 200.44558,136.38627 208.96163,139.61034 C 225.5303,145.88304 217.65174,174.36457 194.88338,174.36457 C 179.26764,174.36457 172.45801,167.09806 169.25857,160.10704 C 162.2212,144.72996 150.14737,117.38732 142.38307,99.127976 C 134.10058,79.649996 112.91409,63.132451 84.998684,63.132451 C 49.854389,63.132451 19.950659,92.181353 19.950659,128.18048 z " style="fill:#ffffff;fill-opacity:1;stroke:none;stroke-width:1;stroke-linejoin:round;stroke-miterlimit:4;stroke-dasharray:none;stroke-opacity:0.56466878"/>
</g>
<path d="M 30.910268,74.349541 C 30.910268,90.000309 42.648344,84.913809 42.648344,84.913809" style="fill:none;fill-rule:evenodd;stroke:#000000;stroke-width:1px;stroke-linecap:butt;stroke-linejoin:miter;stroke-opacity:0.81151831;filter:url(#filter3603)"/>
<path d="M 125.05995,27.941967 L 114.98183,27.941967 L 113.59511,32.66853 L 104.55214,32.66853 L 115.31386,4.035717 L 124.9623,4.035717 L 135.72401,32.66853 L 126.4662,32.66853 L 125.05995,27.941967 z M 123.20448,21.750561 L 120.04042,11.457592 L 116.89589,21.750561 L 123.20448,21.750561 z M 136.99355,23.195873 L 145.41151,22.66853 C 145.5938,24.035726 145.96489,25.077391 146.5248,25.79353 C 147.43624,26.952389 148.73832,27.531816 150.43105,27.531811 C 151.69405,27.531816 152.66736,27.235592 153.35097,26.643139 C 154.03454,26.050698 154.37634,25.363849 154.37636,24.582592 C 154.37634,23.840413 154.05082,23.176352 153.3998,22.590405 C 152.74874,22.004478 151.23832,21.451093 148.86855,20.930248 C 144.98833,20.057865 142.2214,18.899012 140.56776,17.453686 C 138.90109,16.00839 138.06776,14.165944 138.06776,11.926342 C 138.06776,10.45501 138.49419,9.0650375 139.34706,7.7564201 C 140.19992,6.4478526 141.48247,5.4192078 143.19472,4.6704826 C 144.90695,3.9218135 147.25395,3.5474649 150.23573,3.5474358 C 153.89457,3.5474649 156.68428,4.2278027 158.60487,5.5884514 C 160.52542,6.9491542 161.668,9.1138656 162.03261,12.082592 L 153.69276,12.570873 C 153.47139,11.281832 153.0059,10.344333 152.29628,9.7583733 C 151.58663,9.1724593 150.60681,8.8794908 149.35683,8.879467 C 148.32817,8.8794908 147.55343,9.0975895 147.03261,9.5337639 C 146.51176,9.9699845 146.25135,10.500583 146.25136,11.125561 C 146.25135,11.581311 146.46619,11.991467 146.89589,12.35603 C 147.31254,12.733654 148.30213,13.085216 149.86464,13.410717 C 153.73181,14.244069 156.50199,15.087167 158.17519,15.940014 C 159.84834,16.792894 161.06579,17.850836 161.82753,19.113842 C 162.58922,20.376875 162.97008,21.789634 162.97011,23.352123 C 162.97008,25.188068 162.46227,26.880775 161.44667,28.430248 C 160.43102,29.97973 159.01175,31.154859 157.18886,31.955639 C 155.36592,32.75642 153.06775,33.15681 150.29433,33.156811 C 145.42453,33.15681 142.05213,32.219311 140.17714,30.344311 C 138.30214,28.469315 137.24094,26.086505 136.99355,23.195873 L 136.99355,23.195873 z M 167.4037,4.035717 L 182.11073,4.035717 C 185.31384,4.0357456 187.71292,4.7974636 189.308,6.3208733 C 190.90302,7.8443356 191.70055,10.012302 191.70058,12.82478 C 191.70055,15.715421 190.83141,17.974534 189.09315,19.602123 C 187.35485,21.229739 184.70186,22.04354 181.13417,22.04353 L 176.29042,22.04353 L 176.29042,32.66853 L 167.4037,32.66853 L 167.4037,4.035717 z M 176.29042,16.242748 L 178.45839,16.242748 C 180.1641,16.242765 181.36202,15.946541 182.05214,15.354076 C 182.74223,14.761646 183.08728,14.003184 183.0873,13.078686 C 183.08728,12.180269 182.7878,11.418551 182.18886,10.79353 C 181.58988,10.168552 180.46358,9.8560523 178.80995,9.8560295 L 176.29042,9.8560295 L 176.29042,16.242748 z M 193.45839,4.035717 L 203.28261,4.035717 L 209.06386,13.703686 L 214.84511,4.035717 L 224.61073,4.035717 L 213.47792,20.676342 L 213.47792,32.66853 L 204.61073,32.66853 L 204.61073,20.676342 L 193.45839,4.035717 z " style="font-size:12px;font-style:normal;font-weight:normal;line-height:125%;fill:#000000;fill-opacity:1;stroke:none;stroke-width:1px;stroke-linecap:butt;stroke-linejoin:miter;stroke-opacity:1;font-family:Bitstream Vera Sans"/>
<path d="M 83.386941,44.154048 L 90.688796,44.154048 C 92.279096,44.154062 93.470212,44.532246 94.262147,45.288599 C 95.054057,46.044979 95.450018,47.121347 95.450032,48.517706 C 95.450018,49.952873 95.018501,51.074494 94.15548,51.882572 C 93.292434,52.690662 91.975257,53.094704 90.203945,53.094699 L 87.799084,53.094699 L 87.799084,58.369877 L 83.386941,58.369877 L 83.386941,44.154048 z M 87.799084,50.214685 L 88.875453,50.214685 C 89.722318,50.214693 90.317068,50.067621 90.659705,49.77347 C 91.002323,49.479336 91.173637,49.102769 91.173647,48.643768 C 91.173637,48.197715 91.02495,47.819532 90.727584,47.509216 C 90.4302,47.198923 89.871006,47.043771 89.05,47.04376 L 87.799084,47.04376 L 87.799084,50.214685 z M 97.757922,44.154048 L 102.15067,44.154048 L 102.15067,54.869253 L 109.00646,54.869253 L 109.00646,58.369877 L 97.757922,58.369877 L 97.757922,44.154048 z M 119.77015,56.023198 L 114.76649,56.023198 L 114.078,58.369877 L 109.58828,58.369877 L 114.93134,44.154048 L 119.72167,44.154048 L 125.06472,58.369877 L 120.46834,58.369877 L 119.77015,56.023198 z M 118.84894,52.949244 L 117.27802,47.838915 L 115.7168,52.949244 L 118.84894,52.949244 z M 125.02594,44.154048 L 129.90354,44.154048 L 132.77385,48.954072 L 135.64417,44.154048 L 140.49268,44.154048 L 134.96538,52.415908 L 134.96538,58.369877 L 130.56293,58.369877 L 130.56293,52.415908 L 125.02594,44.154048 z M 141.88905,44.154048 L 153.66123,44.154048 L 153.66123,47.189215 L 146.2915,47.189215 L 146.2915,49.44862 L 153.12789,49.44862 L 153.12789,52.348029 L 146.2915,52.348029 L 146.2915,55.150467 L 153.87456,55.150467 L 153.87456,58.369877 L 141.88905,58.369877 L 141.88905,44.154048 z M 156.30852,58.369877 L 156.30852,44.154048 L 163.62977,44.154048 C 164.98734,44.154062 166.02492,44.270427 166.74251,44.503141 C 167.46008,44.735883 168.03867,45.1674 168.47828,45.797693 C 168.91786,46.428011 169.13766,47.195691 169.13767,48.100735 C 169.13766,48.889435 168.96958,49.569842 168.63343,50.141957 C 168.29725,50.714089 167.83503,51.177929 167.24676,51.533479 C 166.87179,51.759749 166.35785,51.947225 165.70493,52.095906 C 166.22856,52.270459 166.60997,52.445005 166.84918,52.619545 C 167.01078,52.735915 167.24513,52.984805 167.55221,53.366215 C 167.85927,53.747636 168.06452,54.041779 168.16797,54.248644 L 170.29162,58.369877 L 165.32675,58.369877 L 162.98007,54.025613 C 162.68268,53.463191 162.41763,53.097937 162.18491,52.92985 C 161.86814,52.710056 161.50935,52.600157 161.10854,52.600151 L 160.72066,52.600151 L 160.72066,58.369877 L 156.30852,58.369877 z M 160.72066,49.914077 L 162.57279,49.914077 C 162.77319,49.914085 163.16107,49.849439 163.73643,49.720137 C 164.02734,49.661963 164.26491,49.513276 164.44917,49.274074 C 164.6334,49.03489 164.72552,48.760141 164.72553,48.449827 C 164.72552,47.990845 164.58007,47.638521 164.28916,47.392852 C 163.99825,47.147206 163.45198,47.024377 162.65037,47.024366 L 160.72066,47.024366 L 160.72066,49.914077 z " style="font-size:18.33184052px;font-style:normal;font-weight:normal;line-height:125%;fill:#000000;fill-opacity:1;stroke:none;stroke-width:1px;stroke-linecap:butt;stroke-linejoin:miter;stroke-opacity:1;font-family:Bitstream Vera Sans" transform="scale(1.2816045,0.7802719)"/>
</svg>
